<?xml version="1.0" encoding="utf-8"?>
<!-- Generator: Adobe Illustrator 22.0.0, SVG Export Plug-In . SVG Version: 6.00 Build 0)  -->
<svg version="1.1" id="Layer_1" xmlns="http://www.w3.org/2000/svg" xmlns:xlink="http://www.w3.org/1999/xlink" x="0px" y="0px"
	 viewBox="0 0 56 35" style="enable-background:new 0 0 56 35;" xml:space="preserve">
<style type="text/css">
	.st0{fill:#F4991A;}
	.st1{fill-rule:evenodd;clip-rule:evenodd;fill:#231F20;}
</style>
<path class="st0" d="M56,33.1c0,1-0.8,1.9-1.9,1.9H1.9c-1,0-1.9-0.8-1.9-1.9V1.9C0,0.8,0.8,0,1.9,0h52.3c1,0,1.9,0.8,1.9,1.9V33.1z"
	/>
<g>
	<g>
		<path class="st1" d="M32,20.4c-1.9,1.4-4.8,2.2-7.2,2.2c-3.4,0-6.5-1.3-8.8-3.4c-0.2-0.2,0-0.4,0.2-0.3c2.5,1.5,5.6,2.3,8.8,2.3
			c2.2,0,4.5-0.4,6.7-1.4C32.1,19.8,32.4,20.1,32,20.4z"/>
		<path class="st1" d="M32.9,19.4c-0.2-0.3-1.6-0.2-2.3-0.1c-0.2,0-0.2-0.1,0-0.3c1.1-0.8,2.9-0.6,3.2-0.3c0.2,0.3-0.1,2.1-1.1,3
			c-0.2,0.1-0.3,0.1-0.2-0.1C32.6,21.1,33.1,19.7,32.9,19.4z"/>
	</g>
	<path class="st1" d="M30.6,13.5v-0.8c0-0.1,0.1-0.2,0.2-0.2l3.4,0c0.1,0,0.2,0.1,0.2,0.2l0,0.7c0,0.1-0.1,0.3-0.3,0.5l-1.8,2.5
		c0.7,0,1.4,0.1,1.9,0.4c0.1,0.1,0.2,0.2,0.2,0.3V18c0,0.1-0.1,0.2-0.3,0.2c-1-0.5-2.4-0.6-3.6,0c-0.1,0.1-0.2-0.1-0.2-0.2v-0.8
		c0-0.1,0-0.3,0.1-0.5l2-2.9l-1.8,0C30.7,13.7,30.6,13.7,30.6,13.5z"/>
	<path class="st1" d="M18.2,18.3h-1c-0.1,0-0.2-0.1-0.2-0.2v-5.3c0-0.1,0.1-0.2,0.2-0.2l1,0c0.1,0,0.2,0.1,0.2,0.2v0.7h0
		c0.3-0.7,0.7-1,1.4-1c0.7,0,1.1,0.3,1.3,1c0.3-0.7,0.8-1,1.4-1c0.4,0,0.9,0.2,1.2,0.6c0.3,0.4,0.3,1.1,0.3,1.7l0,3.4
		c0,0.1-0.1,0.2-0.2,0.2h-1c-0.1,0-0.2-0.1-0.2-0.2l0-2.8c0-0.2,0-0.8,0-1c-0.1-0.4-0.3-0.5-0.6-0.5c-0.3,0-0.5,0.2-0.6,0.4
		c-0.1,0.3-0.1,0.7-0.1,1v2.8c0,0.1-0.1,0.2-0.2,0.2h-1c-0.1,0-0.2-0.1-0.2-0.2l0-2.8c0-0.6,0.1-1.5-0.6-1.5c-0.7,0-0.7,0.9-0.7,1.5
		l0,2.8C18.4,18.2,18.3,18.3,18.2,18.3z"/>
	<path class="st1" d="M37.4,12.5c1.5,0,2.4,1.3,2.4,3c0,1.6-0.9,2.9-2.4,2.9c-1.5,0-2.3-1.3-2.3-3C35,13.8,35.9,12.5,37.4,12.5z
		 M37.4,13.6c-0.8,0-0.8,1-0.8,1.7c0,0.7,0,2,0.8,2c0.8,0,0.8-1.1,0.8-1.8c0-0.4,0-1-0.2-1.4C37.9,13.7,37.7,13.6,37.4,13.6z"/>
	<path class="st1" d="M41.7,18.3h-1c-0.1,0-0.2-0.1-0.2-0.2l0-5.3c0-0.1,0.1-0.2,0.2-0.2l1,0c0.1,0,0.2,0.1,0.2,0.1v0.8h0
		c0.3-0.7,0.7-1.1,1.4-1.1c0.5,0,0.9,0.2,1.2,0.6c0.3,0.4,0.3,1.1,0.3,1.7v3.4c0,0.1-0.1,0.2-0.2,0.2h-1c-0.1,0-0.2-0.1-0.2-0.2
		v-2.9c0-0.6,0.1-1.4-0.6-1.4c-0.3,0-0.5,0.2-0.6,0.4c-0.1,0.3-0.2,0.7-0.2,1v2.9raven1.9,18.2,41.8,18.3,41.7,18.3z"/>
	<path class="st1" d="M27.9,15.8c0,0.4,0,0.7-0.2,1.1c-0.2,0.3-0.4,0.5-0.7,0.5c-0.4,0-0.6-0.3-0.6-0.8c0-0.9,0.8-1,1.5-1V15.8z
		 M28.9,18.3c-0.1,0.1-0.2,0.1-0.2,0c-0.3-0.3-0.4-0.4-0.6-0.7c-0.6,0.6-1,0.8-1.7,0.8c-0.9,0-1.6-0.5-1.6-1.6
		c0-0.8,0.5-1.4,1.1-1.7c0.6-0.2,1.4-0.3,2-0.4v-0.1c0-0.2,0-0.5-0.1-0.8c-0.1-0.2-0.4-0.3-0.6-0.3c-0.4,0-0.7,0.2-0.8,0.6
		c0,0.1-0.1,0.2-0.2,0.2l-1-0.1c-0.1,0-0.2-0.1-0.2-0.2c0.2-1.2,1.3-1.6,2.3-1.6c0.5,0,1.2,0.1,1.6,0.5c0.5,0.5,0.5,1.1,0.5,1.8v1.6
		c0,0.5,0.2,0.7,0.4,1c0.1,0.1,0.1,0.2,0,0.3C29.5,17.8,29.2,18.1,28.9,18.3L28.9,18.3z"/>
	<path class="st1" d="M14.3,15.8c0,0.4,0,0.7-0.2,1.1c-0.2,0.3-0.4,0.5-0.7,0.5c-0.4,0-0.6-0.3-0.6-0.8c0-0.9,0.8-1,1.5-1V15.8z
		 M15.3,18.3c-0.1,0.1-0.2,0.1-0.2,0c-0.3-0.3-0.4-0.4-0.6-0.7c-0.6,0.6-1,0.8-1.7,0.8c-0.9,0-1.6-0.5-1.6-1.6
		c0-0.8,0.5-1.4,1.1-1.7c0.6-0.2,1.4-0.3,2-0.4v-0.1c0-0.2,0-0.5-0.1-0.8c-0.1-0.2-0.4-0.3-0.6-0.3c-0.4,0-0.7,0.2-0.8,0.6
		c0,0.1-0.1,0.2-0.2,0.2l-1-0.1c-0.1,0-0.2-0.1-0.2-0.2c0.2-1.2,1.3-1.6,2.3-1.6c0.5,0,1.2,0.1,1.6,0.5c0.5,0.5,0.5,1.1,0.5,1.8v1.6
		c0,0.5,0.2,0.7,0.4,1c0.1,0.1,0.1,0.2,0,0.3C15.9,17.8,15.5,18.1,15.3,18.3L15.3,18.3z"/>
</g>
</svg>
