<?xml version="1.0" encoding="utf-8"?>
<!-- Generator: Adobe Illustrator 22.0.0, SVG Export Plug-In . SVG Version: 6.00 Build 0)  -->
<svg version="1.1" id="Layer_1" xmlns="http://www.w3.org/2000/svg" xmlns:xlink="http://www.w3.org/1999/xlink" x="0px" y="0px"
	 viewBox="0 0 56 35" style="enable-background:new 0 0 56 35;" xml:space="preserve">
<style type="text/css">
	.st0{fill:#0073A5;}
	.st1{fill:#FFFFFF;}
</style>
<g>
	<path class="st0" d="M56,33.1c0,1-0.8,1.9-1.9,1.9H1.9c-1,0-1.9-0.8-1.9-1.9V1.9C0,0.8,0.8,0,1.9,0h52.3c1,0,1.9,0.8,1.9,1.9V33.1z
		"/>
	<g>
		<path class="st1" d="M17.4,16.7v-0.6l-0.3,0.6h-2.3l-0.3-0.6v0.6h-4.3l-0.5-1.2H8.8l-0.5,1.2H6V13l1.6-3.7h3.2l0.4,1.1v-1h3.9
			l0.8,1.8l0.8-1.8h12.2c0,0,0.6,0,1.1,0.3l0-0.3h3.1v0.4c0,0,0.6-0.4,1.4-0.4c0.8,0,5.4,0,5.4,0l0.5,1.1V9.3h3.5l0.6,1.1V9.3h3.3
			v7.4h-3.4l-0.8-1.3v1.3h-4.2l-0.6-1.3h-0.8l-0.6,1.3h-2.6c0,0-1,0-1.7-0.5c0,0.3,0,0.5,0,0.5H28c0,0,0-1.5,0-1.7
			c0-0.3-0.2-0.2-0.2-0.2h-0.2v2H17.4z"/>
		<path class="st1" d="M14.8,18.3h6.7l1,1.1l1-1.1h5.2c0,0,0.5,0,0.9,0.3v-0.3c0,0,4,0,4.6,0c0.6,0,1.1,0.3,1.1,0.3v-0.3h5.9v0.3
			c0,0,0.4-0.3,1-0.3c0.6,0,3.8,0,3.8,0v0.3c0,0,0.5-0.3,1-0.3c0.5,0,3,0,3,0v7c0,0-0.4,0.4-1.2,0.4h-4v-0.2c0,0-0.4,0.2-1,0.2
			c-0.6,0-10.6,0-10.6,0s0-1.6,0-1.8c0-0.2-0.1-0.2-0.2-0.2h-0.1v2h-3.3v-2c0,0-0.4,0.2-1,0.2c-0.6,0-1.2,0-1.2,0v1.8h-4.1l-0.9-1.1
			l-1,1.1h-6.6V18.3z"/>
		<polygon class="st0" points="36,19.4 40.2,19.4 40.2,20.5 37.2,20.5 37.2,21.5 40.1,21.5 40.1,22.5 37.2,22.5 37.2,23.5 
			40.2,23.5 40.2,24.6 36,24.6 		"/>
		<path class="st0" d="M48.3,21.4c1.6,0.1,1.7,0.9,1.7,1.7c0,1-0.8,1.5-1.6,1.5h-2.7v-1.1h2.1c0.4,0,0.9,0,0.9-0.5
			c0-0.2-0.1-0.4-0.5-0.4c-0.2,0-0.8-0.1-0.9-0.1c-1.4,0-1.8-0.7-1.8-1.6c0-1,0.7-1.5,1.5-1.5h2.7v1.1h-2c-0.4,0-0.9-0.1-0.9,0.5
			c0,0.3,0.2,0.4,0.5,0.4raven7.5,21.4,48.2,21.4,48.3,21.4z"/>
		<path class="st0" d="M43.4,21.4c1.6,0.1,1.7,0.9,1.7,1.7c0,1-0.8,1.5-1.6,1.5h-2.7v-1.1h2.1c0.4,0,0.9,0,0.9-0.5
			c0-0.2-0.1-0.4-0.5-0.4c-0.2,0-0.8-0.1-0.9-0.1c-1.4,0-1.8-0.7-1.8-1.6c0-1,0.7-1.5,1.5-1.5h2.7v1.1h-2c-0.5,0-0.9-0.1-0.9,0.5
			c0,0.3,0.2,0.4,0.5,0.4raven2.7,21.4,43.4,21.4,43.4,21.4z"/>
		<path class="st0" d="M28.2,19.4h-4.5L22.2,21l-1.4-1.6h-5.1v5.2h4.9l1.5-1.7l1.5,1.7h2.5v-1.8h1.7c0.7,0,1.9,0,1.9-1.9
			C29.7,19.7,28.8,19.4,28.2,19.4z M19.9,23.5h-3v-1h2.8v-1H17v-1l3.1,0l1.3,1.4L19.9,23.5z M24.9,24.1L23,22l1.8-2V24.1z
			 M27.8,21.8h-1.6v-1.3h1.6c0.5,0,0.7,0.3,0.7,0.6C28.5,21.5,28.3,21.8,27.8,21.8z"/>
		<path class="st0" d="M34.4,22.3c0.7-0.4,0.9-0.8,0.9-1.5c0-1.1-0.9-1.4-1.5-1.4h-3.3v5.2h1.3v-1.8h1.7c0.4,0,0.6,0.4,0.6,0.9l0,1
			h1.3l0-1.1C35.2,22.7,35,22.3,34.4,22.3z M33.3,21.7h-1.6v-1.2h1.6c0.5,0,0.7,0.3,0.7,0.6C34,21.5,33.8,21.7,33.3,21.7z"/>
		<rect x="30.9" y="10.3" class="st0" width="1.3" height="5.2"/>
		<polygon class="st0" points="20.4,10.4 24.6,10.4 24.6,11.5 21.7,11.5 21.7,12.5 24.5,12.5 24.5,13.5 21.7,13.5 21.7,14.5 
			24.6,14.5 24.6,15.6 20.4,15.6 		"/>
		<path class="st0" d="M29.4,13.2c0.7-0.3,0.9-0.8,0.9-1.5c0-1.1-0.9-1.4-1.5-1.4h-3.3v5.2h1.3v-1.8h1.7c0.4,0,0.6,0.4,0.6,0.9l0,1
			h1.3l0-1.1C30.2,13.7,30,13.3,29.4,13.2z M28.2,12.7h-1.6v-1.2h1.6c0.5,0,0.7,0.3,0.7,0.6C29,12.4,28.8,12.7,28.2,12.7z"/>
		<path class="st0" d="M17.4,10.4l-1.6,3.5l-1.6-3.5h-2v5l-2.2-5H8.3L6,15.6h1.4l0.5-1.2h2.6l0.5,1.2h2.6v-3.9l1.7,3.9h1.2l1.8-3.8
			v3.8h1.3v-5.2H17.4z M8.4,13.3l0.8-1.8l0.8,1.8H8.4z"/>
		<path class="st0" d="M45.5,10.4V14l-2.2-3.6h-1.9v4.9l-2.2-4.9h-1.7l-1.8,4.1c0,0-0.7,0-0.8,0c-0.3-0.1-0.8-0.3-0.8-1.2v-0.4
			c0-1.2,0.7-1.3,1.5-1.3h0.8v-1.1h-1.7c-0.6,0-1.9,0.4-1.9,2.6c0,1.5,0.6,2.6,2,2.6h1.7l0.5-1.2h2.6l0.5,1.2h2.5v-3.8l2.3,3.8h1.8
			v-5.2H45.5z M37.6,13.3l0.8-1.8l0.8,1.8H37.6z"/>
	</g>
</g>
</svg>
