<?xml version="1.0" encoding="utf-8"?>
<!-- Generator: Adobe Illustrator 22.0.0, SVG Export Plug-In . SVG Version: 6.00 Build 0)  -->
<svg version="1.1" id="Layer_1" xmlns="http://www.w3.org/2000/svg" xmlns:xlink="http://www.w3.org/1999/xlink" x="0px" y="0px"
	 viewBox="0 0 56 35" style="enable-background:new 0 0 56 35;" xml:space="preserve">
<style type="text/css">
	.st0{fill:#231F20;}
	.st1{fill-rule:evenodd;clip-rule:evenodd;fill:#FFFFFF;}
</style>
<g>
	<path class="st0" d="M56,33.1c0,1-0.8,1.9-1.9,1.9H1.9c-1,0-1.9-0.8-1.9-1.9V1.9C0,0.8,0.8,0,1.9,0h52.3c1,0,1.9,0.8,1.9,1.9V33.1z
		"/>
	<g>
		<path class="st1" d="M27,14.4h1.7c0,0,1.7,0,1.7,1.5c0,1.2-1.7,1.3-1.7,1.3H27V14.4L27,14.4z M32.2,20c0,0.2,0.2,0.5,0.8,0.5
			c0.7,0,1.1-0.3,1.1-0.3v0.5c0,0-0.8,0.2-1.2,0.2c-0.4,0-1.6-0.1-1.6-1.2c0-0.9,1-1.2,1.5-1.2c1,0,1.4,0.4,1.4,1.4
			C34.3,20,32.7,20,32.2,20L32.2,20z M32.2,19.5h1.3c0,0,0-0.5-0.6-0.5C32.4,19,32.3,19.3,32.2,19.5L32.2,19.5z M36.4,19
			c0.2-0.2,0.5-0.4,1.1-0.4c1.1,0,1.3,0.9,1.2,1.1c0,0.2-0.1,1.2-1.4,1.2c-0.5,0-0.8-0.2-0.9-0.4v0.3h-0.9v-3.1h0.9V19L36.4,19z
			 M37.2,20.4c0.5,0,0.7-0.5,0.7-0.7c0-0.2-0.1-0.6-0.8-0.6c-0.5,0-0.7,0.4-0.7,0.6v0.2C36.5,20.1,36.6,20.4,37.2,20.4L37.2,20.4z
			 M44.5,20.4l0,0.5c0,0-0.4,0.1-0.7,0.1c-0.3,0-0.9-0.2-0.9-0.8c0-0.3,0-0.7,0-1h-0.7v-0.5h0.7c0-0.3,0-0.5,0-0.5h0.9v0.5h0.7v0.5
			h-0.7V20c0,0,0,0.4,0.3,0.4raven4.5,20.4,44.5,20.4,44.5,20.4L44.5,20.4z M41.9,14.8h1v2.4h0.9v-2.4h1v-0.5h-2.9V14.8L41.9,14.8z
			 M41.5,14.9l0.1-0.5c0,0-0.4-0.2-1.2-0.2c-0.7,0-1.9,0.4-1.9,1.5c0,1.1,1.3,1.5,2.1,1.5c0.8,0,1-0.1,1-0.1l-0.1-0.6
			c0,0-0.3,0.1-0.9,0.1c-0.6,0-1.2-0.5-1.2-1c0-0.5,0.5-1,1.2-1raven1.1,14.8,41.5,14.9,41.5,14.9L41.5,14.9z M33.8,14.3
			c0,0,1.4-0.1,1.4,0.8c0,0.7-0.8,0.8-0.8,0.8s0.2,0,0.3,0.2c0.1,0.1,0.7,1.2,0.7,1.2h-0.9c0,0-0.1-0.2-0.2-0.3
			c-0.1-0.1-0.2-0.4-0.2-0.4s-0.1-0.4-0.5-0.4c0,0-0.2,0-0.3,0v1.1h-0.8v-2.9H33.8L33.8,14.3z M33.3,15.6h0.5c0,0,0.6,0,0.7-0.4
			c0-0.4-0.6-0.4-0.6-0.4h-0.5V15.6L33.3,15.6z M36.8,16.1h1.4v-0.5h-1.4v-0.7h1.5v-0.6h-2.4v2.9h2.4v-0.5h-1.5V16.1L36.8,16.1z
			 M40.2,18.3H41v-0.6h-0.9V18.3L40.2,18.3z M40.2,20.9H41v-2.2h-0.9V20.9L40.2,20.9z M30.9,17.2h0.8v-2.9h-0.8V17.2L30.9,17.2z
			 M27,18h1.7c0,0,1.7,0,1.7,1.5c0,1.2-1.7,1.3-1.7,1.3H27V18L27,18z M27.9,20.3h0.6c0,0,1.1-0.1,1.1-1c0-0.9-1.2-1-1.2-1h-0.5V20.3
			L27.9,20.3z M27.9,16.7h0.6c0,0,1.1-0.1,1.1-1c0-0.9-1.2-1-1.2-1h-0.5V16.7L27.9,16.7z"/>
		<path class="st1" d="M19.2,16.1v5.8c0,0-3.4-0.6-3.4-2.9C15.8,17.1,18.3,16.3,19.2,16.1L19.2,16.1z M19.2,16
			c-2-0.1-6.6,0.8-6.6,2.9c0,1.4,2.4,3.3,6.4,3.4c0.2,0,4.7-0.2,4.6-5c-0.1-4.1-3.1-4.8-4.1-4.9v-0.2c3.9,0.2,6.9,2.6,6.9,5.4
			c0,3-3.4,5.4-7.6,5.4c-4.2,0-7.6-2.4-7.6-5.4c0-3,3.4-5.4,7.6-5.4c0.1,0,0.3,0,0.4,0V16L19.2,16z"/>
	</g>
</g>
</svg>
