<?xml version="1.0" encoding="utf-8"?>
<!-- Generator: Adobe Illustrator 22.0.0, SVG Export Plug-In . SVG Version: 6.00 Build 0)  -->
<svg version="1.1" id="Layer_1" xmlns="http://www.w3.org/2000/svg" xmlns:xlink="http://www.w3.org/1999/xlink" x="0px" y="0px"
	 viewBox="0 0 56 35" style="enable-background:new 0 0 56 35;" xml:space="preserve">
<style type="text/css">
	.st0{fill:#F1F2F2;}
	.st1{fill:#F08223;}
	.st2{fill:url(#SVGID_1_);}
	.st3{fill:#061821;}
	.st4{fill:#231F20;}
</style>
<g>
	<path class="st0" d="M56,33.1c0,1-0.8,1.9-1.9,1.9H1.9c-1,0-1.9-0.8-1.9-1.9V1.9C0,0.8,0.8,0,1.9,0h52.3c1,0,1.9,0.8,1.9,1.9V33.1z
		"/>
	<path class="st1" d="M15.4,35h38.7c1,0,1.9-0.8,1.9-1.9V20C52.3,22.4,38.3,30.5,15.4,35z"/>
	<g>
		
			<radialGradient id="SVGID_1_" cx="22.2637" cy="-468.5808" r="2.7594" gradientTransform="matrix(1 0 0 1 6.416 486.083)" gradientUnits="userSpaceOnUse">
			<stop  offset="5.618000e-03" style="stop-color:#FEEEE0"/>
			<stop  offset="0.1072" style="stop-color:#FEE9D8"/>
			<stop  offset="0.273" style="stop-color:#FDDDC2"/>
			<stop  offset="0.4823" style="stop-color:#FBC89D"/>
			<stop  offset="0.7269" style="stop-color:#F7AA68"/>
			<stop  offset="1" style="stop-color:#F08224"/>
		</radialGradient>
		<path class="st2" d="M28.7,14.8c-1.5,0-2.8,1.2-2.8,2.7c0,1.6,1.2,2.8,2.8,2.8c1.6,0,2.8-1.2,2.8-2.7C31.5,16,30.2,14.8,28.7,14.8
			z"/>
		<path class="st3" d="M12.8,14.9h-1.5v5.2h1.5c0.8,0,1.4-0.2,1.9-0.6c0.6-0.5,1-1.2,1-2C15.6,15.9,14.5,14.9,12.8,14.9z M14,18.8
			c-0.3,0.3-0.7,0.4-1.4,0.4h-0.3v-3.5h0.3c0.7,0,1.1,0.1,1.4,0.4c0.4,0.3,0.6,0.8,0.6,1.3C14.6,18,14.4,18.5,14,18.8z"/>
		<rect x="16.1" y="14.9" class="st3" width="1" height="5.2"/>
		<path class="st3" d="M19.6,16.9c-0.6-0.2-0.8-0.4-0.8-0.7c0-0.3,0.3-0.6,0.8-0.6c0.3,0,0.6,0.1,0.8,0.4l0.5-0.7
			c-0.4-0.4-1-0.6-1.5-0.6c-0.9,0-1.6,0.6-1.6,1.5c0,0.7,0.3,1.1,1.3,1.4c0.4,0.1,0.6,0.2,0.7,0.3c0.2,0.1,0.3,0.3,0.3,0.5
			c0,0.4-0.3,0.7-0.8,0.7c-0.5,0-0.9-0.2-1.1-0.7l-0.7,0.6c0.5,0.7,1,1,1.8,1c1.1,0,1.8-0.7,1.8-1.7C21.1,17.7,20.8,17.3,19.6,16.9z
			"/>
		<path class="st3" d="M21.5,17.5c0,1.5,1.2,2.7,2.8,2.7c0.4,0,0.8-0.1,1.3-0.3v-1.2c-0.4,0.4-0.8,0.6-1.2,0.6c-1,0-1.8-0.7-1.8-1.8
			c0-1,0.8-1.8,1.7-1.8c0.5,0,0.9,0.2,1.3,0.6v-1.2c-0.4-0.2-0.8-0.3-1.3-0.3C22.7,14.8,21.5,16,21.5,17.5z"/>
		<polygon class="st3" points="33.8,18.4 32.4,14.9 31.3,14.9 33.5,20.2 34,20.2 36.3,14.9 35.2,14.9 		"/>
		<polygon class="st3" points="36.8,20.1 39.7,20.1 39.7,19.2 37.8,19.2 37.8,17.8 39.6,17.8 39.6,16.9 37.8,16.9 37.8,15.8 
			39.7,15.8 39.7,14.9 36.8,14.9 		"/>
		<path class="st3" d="M43.7,16.4c0-1-0.7-1.5-1.9-1.5h-1.5v5.2h1V18h0.1l1.4,2.1h1.3l-1.7-2.2raven3.3,17.7,43.7,17.2,43.7,16.4z
			 M41.7,17.3h-0.3v-1.6h0.3c0.6,0,1,0.3,1,0.8raven2.7,17,42.3,17.3,41.7,17.3z"/>
		<path class="st4" d="M44.4,15.3c0-0.1-0.1-0.1-0.2-0.1h-0.1v0.5h0.1v-0.2l0.1,0.2h0.1l-0.2-0.2raven4.4,15.4,44.4,15.3,44.4,15.3z
			 M44.2,15.3L44.2,15.3l0-0.1h0raven4.3,15.2,44.3,15.2,44.2,15.3raven4.3,15.3,44.3,15.3,44.2,15.3z"/>
		<path class="st4" d="M44.3,14.9c-0.2,0-0.4,0.2-0.4,0.4c0,0.2,0.2,0.4,0.4,0.4c0.2,0,0.4-0.2,0.4-0.4
			raven4.7,15.1,44.5,14.9,44.3,14.9z M44.3,15.7c-0.2,0-0.3-0.1-0.3-0.3c0-0.2,0.1-0.3,0.3-0.3c0.2,0,0.3,0.1,0.3,0.3
			raven4.6,15.5,44.5,15.7,44.3,15.7z"/>
	</g>
</g>
</svg>
