<?xml version="1.0" encoding="utf-8"?>
<!-- Generator: Adobe Illustrator 22.0.0, SVG Export Plug-In . SVG Version: 6.00 Build 0)  -->
<svg version="1.1" id="Layer_1" xmlns="http://www.w3.org/2000/svg" xmlns:xlink="http://www.w3.org/1999/xlink" x="0px" y="0px"
	 viewBox="0 0 56 35" style="enable-background:new 0 0 56 35;" xml:space="preserve">
<style type="text/css">
	.st0{fill:#16457C;}
	.st1{fill:#E62532;}
	.st2{fill:#0785C5;}
	.st3{fill:#FFFFFF;}
	.st4{fill:none;stroke:#FFFFFF;stroke-width:9.599059e-02;}
</style>
<g>
	<path class="st0" d="M56,33.1c0,1-0.8,1.9-1.9,1.9H1.9c-1,0-1.9-0.8-1.9-1.9V1.9C0,0.8,0.8,0,1.9,0h52.3c1,0,1.9,0.8,1.9,1.9V33.1z
		"/>
	<g>
		<polygon class="st1" points="34.7,27.6 35.2,27.5 35.7,27.5 36.2,27.4 36.7,27.3 37.2,27.2 37.7,27.1 38.1,26.9 38.6,26.8 
			39,26.6 39.5,26.3 39.9,26.1 40.3,25.8 40.7,25.5 41.1,25.3 41.4,24.9 41.8,24.6 42.1,24.3 42.4,23.9 42.7,23.5 43,23.1 
			43.3,22.7 43.5,22.3 43.7,21.8 43.9,21.4 44.1,20.9 44.3,20.5 44.4,20 44.5,19.5 44.6,19 44.7,18.5 44.7,18 44.7,17.5 44.7,17 
			44.7,16.5 44.6,16 44.5,15.5 44.4,15 44.3,14.5 44.1,14 43.9,13.6 43.7,13.1 43.5,12.7 43.3,12.3 43,11.9 42.7,11.5 42.4,11.1 
			42.1,10.7 41.8,10.4 41.4,10.1 41.1,9.7 40.7,9.4 40.3,9.2 39.9,8.9 39.5,8.7 39,8.4 38.6,8.2 38.1,8.1 37.7,7.9 37.2,7.8 
			36.7,7.7 36.2,7.6 35.7,7.5 35.2,7.5 34.7,7.4 34.1,7.5 33.6,7.5 33.1,7.6 32.6,7.7 32.1,7.8 31.7,7.9 31.2,8.1 30.7,8.2 
			30.3,8.4 29.9,8.7 29.5,8.9 29,9.2 28.6,9.4 28.3,9.7 27.9,10.1 27.6,10.4 27.2,10.7 26.9,11.1 26.6,11.5 26.3,11.9 26.1,12.3 
			25.8,12.7 25.6,13.1 25.4,13.6 25.2,14 25.1,14.5 24.9,15 24.8,15.5 24.7,16 24.7,16.5 24.6,17 24.6,17.5 24.6,18 24.7,18.5 
			24.7,19 24.8,19.5 24.9,20 25.1,20.5 25.2,20.9 25.4,21.4 25.6,21.8 25.8,22.3 26.1,22.7 26.3,23.1 26.6,23.5 26.9,23.9 
			27.2,24.3 27.6,24.6 27.9,24.9 28.3,25.3 28.6,25.5 29,25.8 29.5,26.1 29.9,26.3 30.3,26.6 30.7,26.8 31.2,26.9 31.7,27.1 
			32.1,27.2 32.6,27.3 33.1,27.4 33.6,27.5 34.1,27.5 		"/>
		<polygon class="st2" points="21.3,27.6 21.9,27.5 22.4,27.5 22.9,27.4 23.4,27.3 23.9,27.2 24.3,27.1 24.8,26.9 25.3,26.8 
			25.7,26.6 26.1,26.3 26.5,26.1 27,25.8 27.4,25.5 27.7,25.3 28.1,24.9 28.4,24.6 28.8,24.3 29.1,23.9 29.4,23.5 29.7,23.1 
			29.9,22.7 30.2,22.3 30.4,21.8 30.6,21.4 30.8,20.9 30.9,20.5 31.1,20 31.2,19.5 31.3,19 31.3,18.5 31.4,18 31.4,17.5 31.4,17 
			31.3,16.5 31.3,16 31.2,15.5 31.1,15 30.9,14.5 30.8,14 30.6,13.6 30.4,13.1 30.2,12.7 29.9,12.3 29.7,11.9 29.4,11.5 29.1,11.1 
			28.8,10.7 28.4,10.4 28.1,10.1 27.7,9.7 27.4,9.4 27,9.2 26.5,8.9 26.1,8.7 25.7,8.4 25.3,8.2 24.8,8.1 24.3,7.9 23.9,7.8 
			23.4,7.7 22.9,7.6 22.4,7.5 21.9,7.5 21.3,7.4 20.8,7.5 20.3,7.5 19.8,7.6 19.3,7.7 18.8,7.8 18.3,7.9 17.9,8.1 17.4,8.2 17,8.4 
			16.5,8.7 16.1,8.9 15.7,9.2 15.3,9.4 14.9,9.7 14.6,10.1 14.2,10.4 13.9,10.7 13.6,11.1 13.3,11.5 13,11.9 12.7,12.3 12.5,12.7 
			12.3,13.1 12.1,13.6 11.9,14 11.7,14.5 11.6,15 11.5,15.5 11.4,16 11.3,16.5 11.3,17 11.3,17.5 11.3,18 11.3,18.5 11.4,19 
			11.5,19.5 11.6,20 11.7,20.5 11.9,20.9 12.1,21.4 12.3,21.8 12.5,22.3 12.7,22.7 13,23.1 13.3,23.5 13.6,23.9 13.9,24.3 
			14.2,24.6 14.6,24.9 14.9,25.3 15.3,25.5 15.7,25.8 16.1,26.1 16.5,26.3 17,26.6 17.4,26.8 17.9,26.9 18.3,27.1 18.8,27.2 
			19.3,27.3 19.8,27.4 20.3,27.5 20.8,27.5 		"/>
		<polygon class="st1" points="26.8,11.3 31.9,11.3 31.9,10.7 27.3,10.7 		"/>
		<polygon class="st1" points="26,12.5 31.9,12.5 31.9,11.9 26.3,11.9 		"/>
		<polygon class="st1" points="25.4,13.7 31.9,13.7 31.9,13.1 25.6,13.1 		"/>
		<polygon class="st1" points="25,14.9 31.9,14.9 31.9,14.3 25.1,14.3 		"/>
		<polygon class="st1" points="24.7,16.1 31.9,16.1 31.9,15.5 24.8,15.5 		"/>
		<polygon class="st1" points="24.7,18.4 31.9,18.4 31.9,17.8 24.6,17.8 		"/>
		<polygon class="st1" points="24.8,19.6 31.9,19.6 31.9,19.1 24.7,19.1 		"/>
		<polygon class="st1" points="25.2,20.6 31.9,20.6 31.9,20.1 25,20.1 		"/>
		<polygon class="st1" points="25.7,21.9 31.9,21.9 31.9,21.3 25.4,21.3 		"/>
		<polygon class="st1" points="26.4,23.1 31.9,23.1 31.9,22.6 26,22.6 		"/>
		<polygon class="st1" points="27.3,24.4 31.8,24.4 31.8,23.8 26.8,23.8 		"/>
		<g>
			<g>
				<polygon class="st1" points="43.1,23.7 43.1,23.6 43.2,23.5 43.2,23.4 43.3,23.3 43.4,23.3 43.5,23.3 43.6,23.3 43.7,23.3 
					43.8,23.3 43.8,23.3 43.9,23.4 44,23.5 44,23.6 44,23.7 43.9,23.7 43.9,23.6 43.9,23.5 43.8,23.5 43.8,23.4 43.7,23.4 
					43.6,23.4 43.6,23.3 43.5,23.4 43.4,23.4 43.3,23.4 43.3,23.5 43.2,23.5 43.2,23.6 43.2,23.7 				"/>
				<polygon class="st1" points="43.4,23.7 43.4,23.5 43.6,23.5 43.6,23.5 43.7,23.5 43.7,23.6 43.7,23.6 43.7,23.6 43.8,23.6 
					43.8,23.6 43.8,23.7 43.7,23.7 43.7,23.7 43.7,23.6 43.7,23.6 43.7,23.6 43.6,23.6 43.6,23.6 43.6,23.6 43.6,23.6 43.6,23.6 
					43.5,23.6 43.5,23.7 				"/>
				<polygon class="st1" points="43.1,23.7 43.1,23.7 43.1,23.7 43.2,23.7 43.2,23.7 43.2,23.7 				"/>
				<polygon class="st1" points="43.4,23.7 43.4,23.7 43.5,23.7 43.5,23.7 43.6,23.7 43.6,23.7 43.6,23.7 43.6,23.7 43.7,23.7 
					43.7,23.7 43.7,23.7 43.7,23.7 43.7,23.7 43.8,23.7 43.8,23.7 43.8,23.7 43.8,23.7 43.7,23.7 43.7,23.7 				"/>
				<polygon class="st1" points="44,23.7 43.9,23.7 43.9,23.7 44,23.7 44,23.7 44.1,23.7 				"/>
				<polygon class="st1" points="43.1,23.7 43.1,23.8 43.1,23.9 43.1,23.9 43.2,24 43.2,24.1 43.3,24.2 43.4,24.2 43.5,24.2 
					43.6,24.2 43.7,24.2 43.8,24.2 43.8,24.2 43.9,24.1 44,24 44,23.9 44,23.9 44.1,23.8 44.1,23.7 44,23.7 44,23.8 43.9,23.8 
					43.9,23.9 43.9,24 43.8,24.1 43.8,24.1 43.7,24.1 43.6,24.2 43.6,24.2 43.5,24.2 43.4,24.1 43.3,24.1 43.3,24.1 43.2,24 
					43.2,23.9 43.2,23.8 43.2,23.8 43.2,23.7 				"/>
				<polygon class="st1" points="43.4,23.7 43.4,23.9 43.5,23.9 43.5,23.8 43.6,23.8 43.7,23.9 43.7,23.9 43.6,23.8 43.7,23.8 
					43.7,23.8 43.7,23.8 43.7,23.7 43.7,23.7 				"/>
			</g>
		</g>
		<polygon class="st3" points="32.5,16.6 32.4,16.6 32.4,16.6 32.3,16.6 32.2,16.6 32.2,16.6 32.1,16.6 32.1,16.6 32,16.6 
			31.9,16.6 31.8,16.6 31.8,16.5 31.7,16.5 31.6,16.5 31.5,16.5 31.3,16.6 31.2,16.6 31.1,16.6 31,16.6 30.9,16.6 30.9,16.7 
			30.8,16.7 30.7,16.7 30.7,16.8 30.7,16.8 30.6,16.9 30.6,16.9 30.6,17 30.6,17 30.6,17.1 30.6,17.2 30.7,17.2 30.7,17.3 
			30.8,17.4 30.9,17.5 31.1,17.5 31.2,17.6 31.3,17.6 31.5,17.7 31.7,17.7 31.8,17.8 32,17.9 32.1,18 32.2,18.1 32.3,18.2 
			32.4,18.4 32.4,18.6 32.5,18.9 32.4,19.2 32.4,19.4 32.3,19.6 32.3,19.8 32.2,19.9 32.1,20.1 31.9,20.2 31.8,20.3 31.7,20.4 
			31.5,20.4 31.3,20.5 31.2,20.6 31,20.6 30.9,20.6 30.7,20.6 30.5,20.6 30.4,20.6 30.2,20.6 30,20.6 29.8,20.6 29.7,20.6 
			29.5,20.6 29.4,20.6 29.3,20.6 29.2,20.6 29.1,20.6 29,20.6 28.9,20.6 28.8,20.5 28.8,20.5 28.7,20.5 28.6,20.5 28.5,20.4 
			28.7,19.4 28.8,19.4 28.8,19.4 28.9,19.4 29,19.4 29.1,19.5 29.1,19.5 29.3,19.5 29.4,19.5 29.5,19.5 29.6,19.6 29.7,19.6 
			29.9,19.6 30,19.6 30.2,19.6 30.3,19.6 30.4,19.6 30.6,19.6 30.7,19.5 30.8,19.5 30.8,19.4 30.9,19.3 30.9,19.3 30.9,19.2 
			31,19.1 31,19.1 31,19 30.9,18.9 30.9,18.9 30.9,18.8 30.8,18.8 30.8,18.7 30.7,18.7 30.6,18.7 30.6,18.6 30.5,18.6 30.4,18.6 
			30.3,18.5 30.2,18.5 30.1,18.4 30,18.4 29.9,18.4 29.9,18.3 29.8,18.3 29.7,18.2 29.6,18.2 29.5,18.1 29.4,18 29.4,18 29.3,17.9 
			29.2,17.8 29.2,17.7 29.2,17.6 29.1,17.4 29.1,17.3 29.1,17.2 29.1,17 29.1,16.9 29.1,16.8 29.2,16.7 29.2,16.6 29.2,16.6 
			29.2,16.5 29.2,16.4 29.3,16.3 29.3,16.3 29.4,16.2 29.4,16.1 29.4,16.1 29.5,16 29.5,15.9 29.6,15.9 29.7,15.8 29.7,15.8 
			29.8,15.8 29.9,15.7 30,15.7 30,15.6 30.1,15.6 30.2,15.6 30.3,15.6 30.4,15.5 30.5,15.5 30.6,15.5 30.8,15.5 30.9,15.5 31,15.5 
			31.2,15.5 31.3,15.5 31.5,15.5 31.6,15.5 31.8,15.5 31.9,15.5 32,15.5 32.1,15.5 32.2,15.5 32.3,15.5 32.4,15.5 32.4,15.5 
			32.5,15.5 32.6,15.5 32.6,15.5 32.7,15.6 32.7,15.6 32.7,15.6 		"/>
		<g>
			<g>
				<polyline class="st4" points="32.5,16.6 32.5,16.6 32.4,16.6 32.4,16.6 32.3,16.6 32.2,16.6 32.2,16.6 32.1,16.6 32.1,16.6 
					32,16.6 31.9,16.6 31.8,16.6 31.8,16.5 31.7,16.5 31.6,16.5 31.5,16.5 31.3,16.6 31.2,16.6 31.2,16.6 31.1,16.6 31,16.6 
					30.9,16.6 30.9,16.7 30.8,16.7 30.7,16.7 30.7,16.8 30.7,16.8 30.6,16.9 30.6,16.9 30.6,17 30.6,17 30.6,17.1 30.6,17.2 
					30.7,17.2 30.7,17.3 30.7,17.3 30.8,17.4 30.9,17.5 31.1,17.5 31.2,17.6 31.3,17.6 31.5,17.7 31.7,17.7 31.8,17.8 32,17.9 
					32.1,18 32.2,18.1 32.3,18.2 32.4,18.4 32.4,18.6 32.5,18.9 32.4,19.2 32.4,19.2 32.4,19.4 32.3,19.6 32.3,19.8 32.2,19.9 
					32.1,20.1 31.9,20.2 31.8,20.3 31.7,20.4 31.5,20.4 31.3,20.5 31.2,20.6 31,20.6 30.9,20.6 30.7,20.6 30.5,20.6 30.4,20.6 
					30.4,20.6 30.2,20.6 30,20.6 29.8,20.6 29.7,20.6 29.5,20.6 29.4,20.6 29.3,20.6 29.2,20.6 29.1,20.6 29,20.6 28.9,20.6 
					28.8,20.5 28.8,20.5 28.7,20.5 28.6,20.5 28.5,20.4 28.7,19.4 28.7,19.4 28.8,19.4 28.8,19.4 28.9,19.4 29,19.4 29.1,19.5 
					29.1,19.5 29.3,19.5 29.4,19.5 29.5,19.5 29.6,19.6 29.7,19.6 29.9,19.6 30,19.6 30.2,19.6 30.3,19.6 30.4,19.6 30.4,19.6 
					30.6,19.6 30.7,19.5 30.8,19.5 30.8,19.4 30.9,19.3 30.9,19.3 30.9,19.2 31,19.1 31,19.1 31,19.1 31,19 30.9,18.9 30.9,18.9 
					30.9,18.8 30.8,18.8 30.8,18.7 30.7,18.7 30.6,18.7 30.6,18.6 30.5,18.6 30.4,18.6 30.3,18.5 30.2,18.5 30.1,18.4 30,18.4 
					29.9,18.4 29.9,18.3 29.8,18.3 29.7,18.2 29.6,18.2 29.5,18.1 29.4,18 29.4,18 29.3,17.9 29.2,17.8 29.2,17.7 29.2,17.6 
					29.1,17.4 29.1,17.3 29.1,17.2 29.1,17 29.1,17 29.1,16.9 29.1,16.8 29.2,16.7 29.2,16.6 29.2,16.6 29.2,16.5 29.2,16.4 
					29.3,16.3 29.3,16.3 29.4,16.2 29.4,16.1 29.4,16.1 29.5,16 29.5,15.9 29.6,15.9 29.7,15.8 29.7,15.8 29.8,15.8 29.9,15.7 
					30,15.7 30,15.6 30.1,15.6 30.2,15.6 30.3,15.6 30.4,15.5 30.5,15.5 30.6,15.5 30.8,15.5 30.9,15.5 31,15.5 31.2,15.5 
					31.3,15.5 31.3,15.5 31.5,15.5 31.6,15.5 31.8,15.5 31.9,15.5 32,15.5 32.1,15.5 32.2,15.5 32.3,15.5 32.4,15.5 32.4,15.5 
					32.5,15.5 32.6,15.5 32.6,15.5 32.7,15.6 32.7,15.6 32.7,15.6 32.5,16.6 				"/>
			</g>
		</g>
		<polygon class="st3" points="33.6,14.4 34.9,14.4 34.7,15.6 35.5,15.6 35.3,16.6 34.5,16.6 34.1,19.3 34,19.3 34,19.4 34.1,19.4 
			34.1,19.4 34.1,19.5 34.1,19.5 34.1,19.5 34.2,19.6 34.2,19.6 34.3,19.6 34.3,19.6 34.3,19.6 34.4,19.6 34.5,19.6 34.5,19.6 
			34.6,19.6 34.7,19.6 34.8,19.6 34.8,19.6 34.9,19.6 35,19.6 35,19.6 35,19.5 35.1,19.5 34.9,20.4 34.9,20.5 34.9,20.5 34.8,20.5 
			34.8,20.5 34.7,20.5 34.7,20.5 34.7,20.5 34.6,20.6 34.6,20.6 34.5,20.6 34.5,20.6 34.4,20.6 34.3,20.6 34.3,20.6 34.2,20.6 
			34.1,20.6 33.8,20.6 33.6,20.6 33.4,20.6 33.3,20.6 33.1,20.5 33,20.5 32.9,20.5 32.9,20.4 32.8,20.3 32.7,20.3 32.7,20.2 
			32.7,20.1 32.7,20 32.7,19.9 32.7,19.8 32.7,19.7 32.7,19.6 		"/>
		<g>
			<g>
				<polyline class="st4" points="33.6,14.4 34.9,14.4 34.7,15.6 35.5,15.6 35.3,16.6 34.5,16.6 34.1,19.3 34.1,19.3 34,19.3 
					34,19.4 34.1,19.4 34.1,19.4 34.1,19.5 34.1,19.5 34.1,19.5 34.2,19.6 34.2,19.6 34.3,19.6 34.3,19.6 34.3,19.6 34.4,19.6 
					34.5,19.6 34.5,19.6 34.6,19.6 34.6,19.6 34.7,19.6 34.8,19.6 34.8,19.6 34.9,19.6 35,19.6 35,19.6 35,19.5 35.1,19.5 
					34.9,20.4 34.9,20.4 34.9,20.5 34.9,20.5 34.8,20.5 34.8,20.5 34.7,20.5 34.7,20.5 34.7,20.5 34.6,20.6 34.6,20.6 34.5,20.6 
					34.5,20.6 34.4,20.6 34.3,20.6 34.3,20.6 34.2,20.6 34.1,20.6 33.8,20.6 33.8,20.6 33.6,20.6 33.4,20.6 33.3,20.6 33.1,20.5 
					33,20.5 32.9,20.5 32.9,20.4 32.8,20.3 32.7,20.3 32.7,20.2 32.7,20.1 32.7,20 32.7,19.9 32.7,19.8 32.7,19.7 32.7,19.6 
					33.6,14.4 				"/>
			</g>
		</g>
		<polygon class="st3" points="25.5,18.4 25.5,18.5 25.5,18.6 25.5,18.7 25.5,18.8 25.5,18.9 25.6,19 25.6,19 25.7,19.1 25.7,19.2 
			25.8,19.3 25.9,19.3 26,19.4 26.1,19.5 26.2,19.5 26.3,19.5 26.4,19.6 26.5,19.6 26.6,19.6 26.7,19.6 26.8,19.6 27,19.6 
			27.1,19.6 27.2,19.6 27.3,19.6 27.5,19.6 27.6,19.6 27.7,19.5 27.9,19.5 28,19.4 28.1,19.4 28.3,19.3 28.4,19.2 28.2,20.4 
			28.1,20.4 28,20.5 28,20.5 27.9,20.5 27.8,20.5 27.8,20.6 27.7,20.6 27.6,20.6 27.5,20.6 27.4,20.6 27.3,20.6 27.2,20.6 
			27.1,20.6 27,20.6 26.8,20.6 26.7,20.6 26.5,20.6 26.4,20.6 26.3,20.6 26.2,20.6 26.1,20.6 25.9,20.6 25.8,20.6 25.7,20.5 
			25.6,20.5 25.5,20.5 25.4,20.4 25.3,20.4 25.1,20.3 25,20.2 24.9,20.2 24.8,20.1 24.8,20 24.7,19.9 24.6,19.9 24.5,19.8 
			24.4,19.6 24.4,19.5 24.3,19.4 24.2,19.3 24.2,19.1 24.2,19 24.1,18.8 24.1,18.7 24.1,18.5 24.1,18.3 24.1,18.1 24.1,17.9 
			24.1,17.9 24.1,17.8 24.2,17.7 24.2,17.6 24.2,17.5 24.2,17.4 24.2,17.3 24.3,17.2 24.3,17.1 24.3,17 24.4,16.9 24.4,16.8 
			24.5,16.7 24.5,16.6 24.6,16.5 24.7,16.4 24.7,16.3 24.8,16.2 24.9,16.2 25,16.1 25.1,16 25.2,15.9 25.3,15.8 25.5,15.8 
			25.6,15.7 25.7,15.6 25.9,15.6 26,15.6 26.2,15.5 26.4,15.5 26.6,15.5 26.8,15.5 26.9,15.5 26.9,15.5 27,15.5 27.1,15.5 
			27.2,15.5 27.3,15.5 27.4,15.6 27.5,15.6 27.6,15.6 27.7,15.7 27.8,15.7 27.9,15.7 28,15.8 28.1,15.8 28.1,15.9 28.2,16 
			28.3,16.1 28.4,16.1 28.4,16.2 28.5,16.3 28.5,16.4 28.6,16.5 28.6,16.7 28.7,16.8 28.7,16.9 28.7,17.1 28.7,17.2 28.7,17.4 
			28.7,17.6 28.7,17.8 28.7,18 28.6,18.2 28.6,18.5 25.1,18.5 25.3,17.5 27.4,17.5 27.4,17.4 27.4,17.3 27.4,17.2 27.4,17.1 
			27.3,17 27.3,16.9 27.3,16.8 27.2,16.8 27.2,16.7 27.1,16.7 27,16.6 27,16.6 26.9,16.6 26.8,16.5 26.7,16.5 26.6,16.5 26.5,16.5 
			26.5,16.5 26.4,16.6 26.3,16.6 26.2,16.6 26.2,16.7 26.1,16.7 26,16.8 26,16.8 25.9,16.9 25.9,17 25.8,17.1 25.8,17.2 25.7,17.2 
			25.7,17.3 25.7,17.4 		"/>
		<g>
			<g>
				<polyline class="st4" points="25.5,18.4 25.5,18.4 25.5,18.5 25.5,18.6 25.5,18.7 25.5,18.8 25.5,18.9 25.6,19 25.6,19 
					25.7,19.1 25.7,19.2 25.8,19.3 25.9,19.3 26,19.4 26.1,19.5 26.2,19.5 26.3,19.5 26.4,19.6 26.4,19.6 26.5,19.6 26.6,19.6 
					26.7,19.6 26.8,19.6 27,19.6 27.1,19.6 27.2,19.6 27.3,19.6 27.5,19.6 27.6,19.6 27.7,19.5 27.9,19.5 28,19.4 28.1,19.4 
					28.3,19.3 28.4,19.2 28.2,20.4 28.2,20.4 28.1,20.4 28,20.5 28,20.5 27.9,20.5 27.8,20.5 27.8,20.6 27.7,20.6 27.6,20.6 
					27.5,20.6 27.4,20.6 27.3,20.6 27.2,20.6 27.1,20.6 27,20.6 26.8,20.6 26.7,20.6 26.7,20.6 26.5,20.6 26.4,20.6 26.3,20.6 
					26.2,20.6 26.1,20.6 25.9,20.6 25.8,20.6 25.7,20.5 25.6,20.5 25.5,20.5 25.4,20.4 25.3,20.4 25.1,20.3 25,20.2 24.9,20.2 
					24.8,20.1 24.8,20 24.7,19.9 24.6,19.9 24.5,19.8 24.4,19.6 24.4,19.5 24.3,19.4 24.2,19.3 24.2,19.1 24.2,19 24.1,18.8 
					24.1,18.7 24.1,18.5 24.1,18.3 24.1,18.1 24.1,17.9 24.1,17.9 24.1,17.9 24.1,17.8 24.2,17.7 24.2,17.6 24.2,17.5 24.2,17.4 
					24.2,17.3 24.3,17.2 24.3,17.1 24.3,17 24.4,16.9 24.4,16.8 24.5,16.7 24.5,16.6 24.6,16.5 24.7,16.4 24.7,16.3 24.8,16.2 
					24.9,16.2 25,16.1 25.1,16 25.2,15.9 25.3,15.8 25.5,15.8 25.6,15.7 25.7,15.6 25.9,15.6 26,15.6 26.2,15.5 26.4,15.5 
					26.6,15.5 26.8,15.5 26.8,15.5 26.9,15.5 26.9,15.5 27,15.5 27.1,15.5 27.2,15.5 27.3,15.5 27.4,15.6 27.5,15.6 27.6,15.6 
					27.7,15.7 27.8,15.7 27.9,15.7 28,15.8 28.1,15.8 28.1,15.9 28.2,16 28.3,16.1 28.4,16.1 28.4,16.2 28.5,16.3 28.5,16.4 
					28.6,16.5 28.6,16.7 28.7,16.8 28.7,16.9 28.7,17.1 28.7,17.2 28.7,17.4 28.7,17.6 28.7,17.8 28.7,18 28.6,18.2 28.6,18.5 
					25.1,18.5 25.3,17.5 27.4,17.5 27.4,17.5 27.4,17.4 27.4,17.3 27.4,17.2 27.4,17.1 27.3,17 27.3,16.9 27.3,16.8 27.2,16.8 
					27.2,16.7 27.1,16.7 27,16.6 27,16.6 26.9,16.6 26.8,16.5 26.7,16.5 26.6,16.5 26.6,16.5 26.5,16.5 26.5,16.5 26.4,16.6 
					26.3,16.6 26.2,16.6 26.2,16.7 26.1,16.7 26,16.8 26,16.8 25.9,16.9 25.9,17 25.8,17.1 25.8,17.2 25.7,17.2 25.7,17.3 
					25.7,17.4 25.5,18.4 				"/>
			</g>
		</g>
		<polygon class="st3" points="23.7,19.6 23.5,20.6 22.3,20.6 22.3,20.5 22.3,20.4 22.3,20.4 22.3,20.3 22.4,20.2 22.4,20.1 
			22.4,20.1 22.4,20.1 22.3,20.2 22.2,20.2 22.2,20.3 22.1,20.4 21.9,20.4 21.8,20.5 21.7,20.5 21.6,20.6 21.4,20.6 21.3,20.7 
			21.2,20.7 21,20.7 20.9,20.7 20.7,20.7 20.6,20.7 20.5,20.7 20.3,20.7 20.2,20.6 20,20.5 19.9,20.5 19.8,20.4 19.7,20.3 
			19.6,20.2 19.6,20.1 19.5,20 19.5,19.9 19.4,19.8 19.4,19.7 19.4,19.6 19.4,19.5 19.4,19.4 19.4,19.3 19.4,19.1 19.4,18.9 
			19.4,18.8 19.5,18.6 19.6,18.4 19.7,18.3 19.8,18.2 19.9,18.1 20,17.9 20.1,17.9 20.3,17.8 20.4,17.7 20.6,17.6 20.7,17.6 
			20.9,17.5 21,17.5 21.1,17.5 21.1,17.5 21.1,17.5 21.2,17.5 21.2,17.5 21.3,17.5 21.4,17.5 21.4,17.5 21.5,17.5 21.6,17.4 
			21.7,17.4 21.8,17.4 21.8,17.4 21.9,17.4 22,17.4 22,17.4 22.1,17.4 22.1,17.4 22.2,17.4 22.2,17.4 22.3,17.4 22.4,17.4 
			22.4,17.4 22.5,17.4 22.5,17.4 22.5,17.4 22.6,17.4 22.6,17.4 22.6,17.4 22.7,17.4 22.7,17.4 22.7,17.4 22.7,17.4 22.7,17.3 
			22.7,17.2 22.7,17.1 22.7,17.1 22.7,17 22.7,17 22.7,16.9 22.6,16.9 22.6,16.8 22.6,16.8 22.5,16.8 22.5,16.7 22.5,16.7 
			22.4,16.7 22.4,16.6 22.3,16.6 22.2,16.6 22.2,16.6 22.1,16.6 22,16.6 21.9,16.6 21.7,16.6 21.6,16.6 21.4,16.6 21.3,16.6 
			21.1,16.7 21,16.7 20.8,16.7 20.7,16.7 20.6,16.7 20.4,16.8 20.3,16.8 20.2,16.8 20.2,16.8 20.1,16.9 20.5,15.7 20.6,15.7 
			20.7,15.7 20.8,15.6 20.9,15.6 21,15.6 21.1,15.6 21.3,15.5 21.4,15.5 21.5,15.5 21.6,15.5 21.8,15.5 21.9,15.5 22.1,15.5 
			22.2,15.5 22.4,15.5 22.6,15.5 22.7,15.5 22.8,15.5 23,15.6 23.1,15.6 23.3,15.7 23.4,15.7 23.6,15.8 23.7,15.9 23.8,16 
			23.9,16.1 24,16.3 24.1,16.4 24.2,16.6 24.2,16.7 24.2,16.9 24.2,17.1 		"/>
		<g>
			<g>
				<polyline class="st4" points="23.7,19.6 23.5,20.6 22.3,20.6 22.3,20.6 22.3,20.5 22.3,20.4 22.3,20.4 22.3,20.3 22.4,20.2 
					22.4,20.1 22.4,20.1 22.4,20.1 22.4,20.1 22.3,20.2 22.2,20.2 22.2,20.3 22.1,20.4 21.9,20.4 21.8,20.5 21.7,20.5 21.6,20.6 
					21.4,20.6 21.3,20.7 21.2,20.7 21,20.7 20.9,20.7 20.7,20.7 20.6,20.7 20.5,20.7 20.5,20.7 20.3,20.7 20.2,20.6 20,20.5 
					19.9,20.5 19.8,20.4 19.7,20.3 19.6,20.2 19.6,20.1 19.5,20 19.5,19.9 19.4,19.8 19.4,19.7 19.4,19.6 19.4,19.5 19.4,19.4 
					19.4,19.3 19.4,19.3 19.4,19.1 19.4,18.9 19.4,18.8 19.5,18.6 19.6,18.4 19.7,18.3 19.8,18.2 19.9,18.1 20,17.9 20.1,17.9 
					20.3,17.8 20.4,17.7 20.6,17.6 20.7,17.6 20.9,17.5 21,17.5 21,17.5 21.1,17.5 21.1,17.5 21.1,17.5 21.2,17.5 21.2,17.5 
					21.3,17.5 21.4,17.5 21.4,17.5 21.5,17.5 21.6,17.4 21.7,17.4 21.8,17.4 21.8,17.4 21.9,17.4 22,17.4 22,17.4 22,17.4 
					22.1,17.4 22.1,17.4 22.2,17.4 22.2,17.4 22.3,17.4 22.4,17.4 22.4,17.4 22.5,17.4 22.5,17.4 22.5,17.4 22.6,17.4 22.6,17.4 
					22.6,17.4 22.7,17.4 22.7,17.4 22.7,17.4 22.7,17.4 22.7,17.4 22.7,17.3 22.7,17.2 22.7,17.1 22.7,17.1 22.7,17.1 22.7,17 
					22.7,17 22.7,16.9 22.6,16.9 22.6,16.8 22.6,16.8 22.5,16.8 22.5,16.7 22.5,16.7 22.4,16.7 22.4,16.6 22.3,16.6 22.2,16.6 
					22.2,16.6 22.1,16.6 22.1,16.6 22,16.6 21.9,16.6 21.7,16.6 21.6,16.6 21.4,16.6 21.3,16.6 21.1,16.7 21,16.7 20.8,16.7 
					20.7,16.7 20.6,16.7 20.4,16.8 20.3,16.8 20.2,16.8 20.2,16.8 20.1,16.9 20.5,15.7 20.5,15.7 20.6,15.7 20.7,15.7 20.8,15.6 
					20.9,15.6 21,15.6 21.1,15.6 21.3,15.5 21.4,15.5 21.5,15.5 21.6,15.5 21.8,15.5 21.9,15.5 22.1,15.5 22.2,15.5 22.4,15.5 
					22.6,15.5 22.6,15.5 22.7,15.5 22.8,15.5 23,15.6 23.1,15.6 23.3,15.7 23.4,15.7 23.6,15.8 23.7,15.9 23.8,16 23.9,16.1 
					24,16.3 24.1,16.4 24.2,16.6 24.2,16.7 24.2,16.9 24.2,17.1 23.7,19.6 				"/>
			</g>
		</g>
		<polygon class="st2" points="22.5,18.3 22.5,18.3 22.5,18.3 22.5,18.3 22.4,18.3 22.4,18.3 22.3,18.3 22.2,18.3 22.2,18.3 
			22.1,18.3 22,18.3 21.9,18.3 21.9,18.3 21.8,18.3 21.7,18.3 21.7,18.3 21.6,18.4 21.6,18.4 21.5,18.4 21.5,18.4 21.4,18.4 
			21.4,18.4 21.3,18.5 21.3,18.5 21.2,18.6 21.1,18.6 21.1,18.6 21,18.7 21,18.8 20.9,18.8 20.9,18.9 20.9,19 20.8,19 20.8,19.2 
			20.9,19.3 20.9,19.4 21,19.5 21,19.6 21.1,19.6 21.2,19.6 21.3,19.6 21.4,19.6 21.5,19.6 21.7,19.6 21.8,19.5 21.9,19.5 22,19.5 
			22,19.4 22.1,19.4 22.2,19.3 22.2,19.3 22.3,19.2 22.3,19.2 22.3,19.1 22.4,19 22.4,19 22.4,18.9 22.4,18.9 22.4,18.8 22.5,18.7 
			22.5,18.6 22.5,18.6 22.5,18.5 22.5,18.4 		"/>
		<polygon class="st3" points="13.7,20.6 12.4,20.6 13.5,14.4 15.7,14.4 16,18.1 17.5,14.4 19.8,14.4 18.7,20.6 17.4,20.6 18.3,16 
			18.2,16 16.3,20.6 14.8,20.6 14.8,20.4 14.8,19.9 14.8,19.2 14.7,18.4 14.7,17.5 14.6,16.8 14.6,16.2 14.6,16 14.6,16 14.6,16 
			14.5,16 14.5,16 14.5,16 14.5,16 14.5,16 14.5,16 		"/>
		<g>
			<g>
				<polyline class="st4" points="13.7,20.6 12.4,20.6 13.5,14.4 15.7,14.4 16,18.1 17.5,14.4 19.8,14.4 18.7,20.6 17.4,20.6 
					18.3,16 18.2,16 16.3,20.6 14.8,20.6 14.8,20.6 14.8,20.4 14.8,19.9 14.8,19.2 14.7,18.4 14.7,17.5 14.6,16.8 14.6,16.2 
					14.6,16 14.6,16 14.6,16 14.6,16 14.5,16 14.5,16 14.5,16 14.5,16 14.5,16 14.5,16 13.7,20.6 				"/>
			</g>
		</g>
		<polygon class="st3" points="35.3,20.6 36.6,20.6 36.6,20.6 37.1,18 37.1,17.9 37.1,17.8 37.1,17.6 37.2,17.6 37.2,17.5 
			37.3,17.4 37.3,17.3 37.4,17.2 37.5,17.1 37.5,17.1 37.6,17 37.8,16.9 37.9,16.9 38,16.9 38.2,16.9 38.4,16.8 38.4,16.8 
			38.4,16.8 38.5,16.8 38.5,16.8 38.5,16.8 38.5,16.9 38.5,16.9 38.5,16.9 38.5,16.8 38.6,16.8 38.6,16.7 38.6,16.6 38.6,16.5 
			38.7,16.3 38.7,16.2 38.8,16.1 38.8,16 38.8,15.9 38.9,15.8 38.9,15.7 39,15.7 39,15.6 39,15.6 39,15.5 39,15.5 39,15.5 39,15.5 
			39,15.5 38.9,15.5 38.9,15.5 38.8,15.5 38.8,15.5 38.7,15.5 38.5,15.5 38.4,15.6 38.3,15.6 38.2,15.6 38.1,15.7 38,15.7 
			37.9,15.8 37.8,15.8 37.8,15.9 37.7,16 37.6,16.1 37.6,16.2 37.5,16.2 37.4,16.3 37.4,16.4 37.5,15.6 36.2,15.6 35.3,20.6 		"/>
		<g>
			<g>
				<polyline class="st4" points="35.3,20.6 36.6,20.6 36.6,20.6 37.1,18 37.1,18 37.1,17.9 37.1,17.8 37.1,17.6 37.2,17.6 
					37.2,17.5 37.3,17.4 37.3,17.3 37.4,17.2 37.5,17.1 37.5,17.1 37.6,17 37.8,16.9 37.9,16.9 38,16.9 38.2,16.9 38.4,16.8 
					38.4,16.8 38.4,16.8 38.4,16.8 38.5,16.8 38.5,16.8 38.5,16.8 38.5,16.9 38.5,16.9 38.5,16.9 38.5,16.9 38.5,16.8 38.6,16.8 
					38.6,16.7 38.6,16.6 38.6,16.5 38.7,16.3 38.7,16.2 38.8,16.1 38.8,16.1 38.8,16 38.8,15.9 38.9,15.8 38.9,15.7 39,15.7 
					39,15.6 39,15.6 39,15.5 39,15.5 39,15.5 39,15.5 39,15.5 39,15.5 38.9,15.5 38.9,15.5 38.8,15.5 38.8,15.5 38.8,15.5 
					38.7,15.5 38.5,15.5 38.4,15.6 38.3,15.6 38.2,15.6 38.1,15.7 38,15.7 37.9,15.8 37.8,15.8 37.8,15.9 37.7,16 37.6,16.1 
					37.6,16.2 37.5,16.2 37.4,16.3 37.4,16.4 37.5,15.6 36.2,15.6 35.3,20.6 35.3,20.6 				"/>
			</g>
		</g>
		<polygon class="st3" points="41.1,15.5 41.2,15.5 41.4,15.5 41.5,15.5 41.7,15.6 41.8,15.6 41.9,15.6 42.1,15.7 42.2,15.7 
			42.3,15.7 42.4,15.8 42.5,15.9 42.6,15.9 42.7,16 42.8,16.1 42.9,16.1 43,16.2 43,16.3 43.1,16.4 43.2,16.5 43.2,16.6 43.3,16.7 
			43.4,16.8 43.4,16.9 43.4,17 43.5,17.1 43.5,17.3 43.5,17.4 43.6,17.5 43.6,17.6 43.6,17.8 43.6,17.9 43.6,18.1 43.6,18.2 
			43.5,18.4 43.5,18.5 43.5,18.7 43.5,18.8 43.4,19 43.4,19.1 43.3,19.2 43.3,19.4 43.2,19.5 43.1,19.6 43.1,19.7 43,19.8 
			42.9,19.9 42.8,20 42.7,20.1 42.6,20.2 42.5,20.2 42.4,20.3 42.3,20.4 42.2,20.4 42.1,20.5 42,20.5 41.9,20.6 41.8,20.6 
			41.6,20.6 41.5,20.7 41.4,20.7 41.3,20.7 41.1,20.7 41,20.7 40.9,20.7 40.7,20.7 40.6,20.7 40.5,20.7 40.3,20.7 40.2,20.7 
			40.1,20.6 40,20.6 39.8,20.6 39.7,20.5 39.6,20.5 39.5,20.4 39.4,20.4 39.3,20.3 39.2,20.2 39.1,20.2 39,20.1 39,20 38.9,19.9 
			38.8,19.8 38.7,19.7 38.7,19.6 38.6,19.5 38.6,19.4 38.5,19.3 38.5,19.2 38.5,19 38.4,18.9 38.4,18.8 38.4,18.6 38.4,18.5 
			38.4,18.3 38.4,18.2 38.4,18 38.4,17.9 38.4,17.7 38.5,17.6 38.5,17.4 38.5,17.3 38.6,17.2 38.6,17 38.7,16.9 38.7,16.8 
			38.8,16.7 38.9,16.6 38.9,16.5 39,16.4 39.1,16.3 39.2,16.2 39.3,16.1 39.4,16 39.5,16 39.6,15.9 39.7,15.8 39.8,15.8 39.9,15.7 
			40,15.7 40.1,15.6 40.3,15.6 40.4,15.6 40.5,15.6 40.7,15.5 40.8,15.5 41,15.5 		"/>
		<g>
			<g>
				<polyline class="st4" points="41.1,15.5 41.1,15.5 41.2,15.5 41.4,15.5 41.5,15.5 41.7,15.6 41.8,15.6 41.9,15.6 42.1,15.7 
					42.2,15.7 42.3,15.7 42.4,15.8 42.5,15.9 42.6,15.9 42.7,16 42.8,16.1 42.9,16.1 43,16.2 43,16.3 43.1,16.4 43.2,16.5 
					43.2,16.6 43.3,16.7 43.4,16.8 43.4,16.9 43.4,17 43.5,17.1 43.5,17.3 43.5,17.4 43.6,17.5 43.6,17.6 43.6,17.8 43.6,17.9 
					43.6,18.1 43.6,18.1 43.6,18.2 43.5,18.4 43.5,18.5 43.5,18.7 43.5,18.8 43.4,19 43.4,19.1 43.3,19.2 43.3,19.4 43.2,19.5 
					43.1,19.6 43.1,19.7 43,19.8 42.9,19.9 42.8,20 42.7,20.1 42.6,20.2 42.5,20.2 42.4,20.3 42.3,20.4 42.2,20.4 42.1,20.5 
					42,20.5 41.9,20.6 41.8,20.6 41.6,20.6 41.5,20.7 41.4,20.7 41.3,20.7 41.1,20.7 41,20.7 40.9,20.7 40.9,20.7 40.7,20.7 
					40.6,20.7 40.5,20.7 40.3,20.7 40.2,20.7 40.1,20.6 40,20.6 39.8,20.6 39.7,20.5 39.6,20.5 39.5,20.4 39.4,20.4 39.3,20.3 
					39.2,20.2 39.1,20.2 39,20.1 39,20 38.9,19.9 38.8,19.8 38.7,19.7 38.7,19.6 38.6,19.5 38.6,19.4 38.5,19.3 38.5,19.2 38.5,19 
					38.4,18.9 38.4,18.8 38.4,18.6 38.4,18.5 38.4,18.3 38.4,18.2 38.4,18.2 38.4,18 38.4,17.9 38.4,17.7 38.5,17.6 38.5,17.4 
					38.5,17.3 38.6,17.2 38.6,17 38.7,16.9 38.7,16.8 38.8,16.7 38.9,16.6 38.9,16.5 39,16.4 39.1,16.3 39.2,16.2 39.3,16.1 
					39.4,16 39.5,16 39.6,15.9 39.7,15.8 39.8,15.8 39.9,15.7 40,15.7 40.1,15.6 40.3,15.6 40.4,15.6 40.5,15.6 40.7,15.5 
					40.8,15.5 41,15.5 41.1,15.5 				"/>
			</g>
		</g>
		<polygon class="st3" points="43.1,20.4 43.5,20.4 43.5,20.4 43.3,20.4 43.3,20.8 43.2,20.8 43.2,20.4 43.1,20.4 		"/>
		<g>
			<g>
				<polyline class="st4" points="43.1,20.4 43.5,20.4 43.5,20.4 43.3,20.4 43.3,20.8 43.2,20.8 43.2,20.4 43.1,20.4 43.1,20.4 				
					"/>
			</g>
		</g>
		<polygon class="st3" points="43.5,20.4 43.6,20.4 43.8,20.7 43.8,20.7 43.9,20.4 44,20.4 44,20.8 43.9,20.8 43.9,20.5 43.9,20.5 
			43.8,20.8 43.7,20.8 43.6,20.5 43.6,20.5 43.6,20.8 43.5,20.8 		"/>
		<g>
			<g>
				<polyline class="st4" points="43.5,20.4 43.6,20.4 43.8,20.7 43.8,20.7 43.9,20.4 44,20.4 44,20.8 43.9,20.8 43.9,20.5 
					43.9,20.5 43.8,20.8 43.7,20.8 43.6,20.5 43.6,20.5 43.6,20.8 43.5,20.8 43.5,20.4 				"/>
			</g>
		</g>
		<polygon class="st1" points="40,17.9 40,18.1 40,18.3 40,18.5 40,18.6 40,18.7 40.1,18.8 40.1,19 40.2,19 40.2,19.1 40.3,19.2 
			40.3,19.3 40.4,19.3 40.5,19.3 40.6,19.4 40.7,19.4 40.8,19.4 40.9,19.4 41,19.4 41.1,19.3 41.2,19.3 41.3,19.3 41.4,19.2 
			41.5,19.1 41.6,19.1 41.6,19 41.7,18.9 41.8,18.7 41.8,18.6 41.9,18.5 41.9,18.3 41.9,18.1 42,18 42,17.8 42,17.7 42,17.5 
			42,17.4 42,17.3 41.9,17.2 41.9,17.1 41.9,17 41.8,16.9 41.7,16.8 41.7,16.8 41.6,16.7 41.5,16.7 41.4,16.7 41.3,16.6 41.2,16.6 
			41.1,16.6 41,16.7 40.8,16.7 40.7,16.8 40.6,16.8 40.5,16.9 40.5,17 40.4,17.1 40.3,17.2 40.3,17.3 40.2,17.4 40.2,17.5 
			40.1,17.6 40.1,17.7 40.1,17.8 		"/>
	</g>
</g>
</svg>
