<?xml version="1.0" encoding="utf-8"?>
<!-- Generator: Adobe Illustrator 22.0.0, SVG Export Plug-In . SVG Version: 6.00 Build 0)  -->
<svg version="1.1" id="Layer_1" xmlns="http://www.w3.org/2000/svg" xmlns:xlink="http://www.w3.org/1999/xlink" x="0px" y="0px"
	 viewBox="0 0 56 35" style="enable-background:new 0 0 56 35;" xml:space="preserve">
<style type="text/css">
	.st0{fill:#16457C;}
	.st1{fill-rule:evenodd;clip-rule:evenodd;fill:#F9B334;}
	.st2{fill-rule:evenodd;clip-rule:evenodd;fill:#E62532;}
	.st3{fill-rule:evenodd;clip-rule:evenodd;fill:#FFFFFF;}
	.st4{fill:none;stroke:#FFFFFF;stroke-width:9.643706e-02;stroke-miterlimit:2.6131;}
</style>
<g>
	<path class="st0" d="M56,33.1c0,1-0.8,1.9-1.9,1.9H1.9c-1,0-1.9-0.8-1.9-1.9V1.9C0,0.8,0.8,0,1.9,0h52.3c1,0,1.9,0.8,1.9,1.9V33.1z
		"/>
	<g>
		<polygon class="st1" points="34.7,27.5 35.2,27.5 35.8,27.5 36.3,27.4 36.8,27.3 37.2,27.2 37.7,27.1 38.2,26.9 38.6,26.8 
			39.1,26.6 39.5,26.3 39.9,26.1 40.3,25.8 40.7,25.5 41.1,25.2 41.5,24.9 41.8,24.6 42.2,24.2 42.5,23.9 42.8,23.5 43.1,23.1 
			43.3,22.7 43.6,22.3 43.8,21.8 44,21.4 44.2,20.9 44.3,20.5 44.5,20 44.6,19.5 44.7,19 44.7,18.5 44.8,18 44.8,17.5 44.8,17 
			44.7,16.5 44.7,16 44.6,15.5 44.5,15 44.3,14.5 44.2,14 44,13.6 43.8,13.1 43.6,12.7 43.3,12.3 43.1,11.9 42.8,11.5 42.5,11.1 
			42.2,10.7 41.8,10.4 41.5,10.1 41.1,9.7 40.7,9.4 40.3,9.2 39.9,8.9 39.5,8.7 39.1,8.4 38.6,8.2 38.2,8.1 37.7,7.9 37.2,7.8 
			36.8,7.7 36.3,7.6 35.8,7.5 35.2,7.5 34.7,7.5 34.2,7.5 33.7,7.5 33.2,7.6 32.7,7.7 32.2,7.8 31.7,7.9 31.3,8.1 30.8,8.2 
			30.4,8.4 29.9,8.7 29.5,8.9 29.1,9.2 28.7,9.4 28.3,9.7 28,10.1 27.6,10.4 27.3,10.7 27,11.1 26.7,11.5 26.4,11.9 26.1,12.3 
			25.9,12.7 25.7,13.1 25.5,13.6 25.3,14 25.1,14.5 25,15 24.9,15.5 24.8,16 24.7,16.5 24.7,17 24.7,17.5 24.7,18 24.7,18.5 
			24.8,19 24.9,19.5 25,20 25.1,20.5 25.3,20.9 25.5,21.4 25.7,21.8 25.9,22.3 26.1,22.7 26.4,23.1 26.7,23.5 27,23.9 27.3,24.2 
			27.6,24.6 28,24.9 28.3,25.2 28.7,25.5 29.1,25.8 29.5,26.1 29.9,26.3 30.4,26.6 30.8,26.8 31.3,26.9 31.7,27.1 32.2,27.2 
			32.7,27.3 33.2,27.4 33.7,27.5 34.2,27.5 34.7,27.5 34.7,27.5 		"/>
		<polygon class="st2" points="21.3,27.5 21.8,27.5 22.3,27.5 22.8,27.4 23.3,27.3 23.8,27.2 24.3,27.1 24.7,26.9 25.2,26.8 
			25.6,26.6 26.1,26.3 26.5,26.1 26.9,25.8 27.3,25.5 27.7,25.2 28,24.9 28.4,24.6 28.7,24.2 29,23.9 29.3,23.5 29.6,23.1 
			29.9,22.7 30.1,22.3 30.3,21.8 30.5,21.4 30.7,20.9 30.9,20.5 31,20 31.1,19.5 31.2,19 31.3,18.5 31.3,18 31.3,17.5 31.3,17 
			31.3,16.5 31.2,16 31.1,15.5 31,15 30.9,14.5 30.7,14 30.5,13.6 30.3,13.1 30.1,12.7 29.9,12.3 29.6,11.9 29.3,11.5 29,11.1 
			28.7,10.7 28.4,10.4 28,10.1 27.7,9.7 27.3,9.4 26.9,9.2 26.5,8.9 26.1,8.7 25.6,8.4 25.2,8.2 24.7,8.1 24.3,7.9 23.8,7.8 
			23.3,7.7 22.8,7.6 22.3,7.5 21.8,7.5 21.3,7.5 20.8,7.5 20.2,7.5 19.7,7.6 19.2,7.7 18.8,7.8 18.3,7.9 17.8,8.1 17.4,8.2 
			16.9,8.4 16.5,8.7 16.1,8.9 15.6,9.2 15.3,9.4 14.9,9.7 14.5,10.1 14.2,10.4 13.8,10.7 13.5,11.1 13.2,11.5 12.9,11.9 12.7,12.3 
			12.4,12.7 12.2,13.1 12,13.6 11.8,14 11.7,14.5 11.5,15 11.4,15.5 11.3,16 11.3,16.5 11.2,17 11.2,17.5 11.2,18 11.3,18.5 
			11.3,19 11.4,19.5 11.5,20 11.7,20.5 11.8,20.9 12,21.4 12.2,21.8 12.4,22.3 12.7,22.7 12.9,23.1 13.2,23.5 13.5,23.9 13.8,24.2 
			14.2,24.6 14.5,24.9 14.9,25.2 15.3,25.5 15.6,25.8 16.1,26.1 16.5,26.3 16.9,26.6 17.4,26.8 17.8,26.9 18.3,27.1 18.8,27.2 
			19.2,27.3 19.7,27.4 20.2,27.5 20.8,27.5 21.3,27.5 21.3,27.5 		"/>
		<polygon class="st1" points="26.8,11.3 32.2,11.3 32.2,10.8 27.3,10.8 26.8,11.3 26.8,11.3 		"/>
		<polygon class="st1" points="26,12.5 32.2,12.5 32.2,12 26.3,12 26,12.5 26,12.5 		"/>
		<polygon class="st1" points="25.4,13.7 32.2,13.7 32.2,13.2 25.7,13.2 25.4,13.7 25.4,13.7 		"/>
		<polygon class="st1" points="25,14.9 32.2,14.9 32.2,14.4 25.2,14.4 25,14.9 25,14.9 		"/>
		<polygon class="st1" points="25.3,20.8 32.2,20.8 32.2,20.3 25.1,20.3 25.3,20.8 25.3,20.8 		"/>
		<polygon class="st1" points="25.8,22 32.2,22 32.2,21.5 25.5,21.5 25.8,22 25.8,22 		"/>
		<polygon class="st1" points="26.5,23.2 32.2,23.2 32.2,22.7 26.1,22.7 26.5,23.2 26.5,23.2 		"/>
		<polygon class="st1" points="27.5,24.4 32.2,24.4 32.2,23.9 27,23.9 27.5,24.4 27.5,24.4 		"/>
		<polygon class="st1" points="24.8,16.2 32.2,16.2 32.2,15.6 24.9,15.6 24.8,16.2 24.8,16.2 		"/>
		<polygon class="st1" points="29.3,19.6 32.1,19.6 32.1,19.1 29.4,19.1 29.3,19.6 29.3,19.6 		"/>
		<polygon class="st1" points="29.5,18.4 32.1,18.4 32.1,17.8 29.6,17.8 29.5,18.4 29.5,18.4 		"/>
		<polygon class="st1" points="24.6,17.8 25.3,17.8 25.3,18.4 24.6,18.4 24.6,17.8 24.6,17.8 		"/>
		<polygon class="st3" points="23.2,17.2 23.2,17.2 23.1,17.2 23.1,17.2 23,17.2 23,17.1 23,17.1 22.9,17.1 22.9,17.1 22.8,17.1 
			22.8,17.1 22.7,17.1 22.6,17.1 22.6,17.1 22.5,17.1 22.4,17.1 22.3,17.1 22.2,17.1 22.2,17.1 22.1,17.2 22.1,17.2 22,17.2 
			22,17.2 21.9,17.3 21.9,17.3 21.9,17.3 21.9,17.4 21.9,17.4 21.9,17.5 21.9,17.5 21.9,17.5 21.9,17.6 21.9,17.6 22,17.7 
			22.1,17.7 22.2,17.8 22.3,17.8 22.4,17.9 22.5,17.9 22.6,17.9 22.7,18 22.8,18 22.9,18.1 23,18.2 23.1,18.3 23.1,18.4 23.2,18.6 
			23.2,18.8 23.2,19 23.1,19.1 23.1,19.3 23.1,19.4 23,19.5 22.9,19.6 22.8,19.7 22.7,19.8 22.6,19.8 22.5,19.9 22.4,19.9 22.3,20 
			22.2,20 22.1,20 21.9,20 21.8,20 21.7,20 21.6,20 21.4,20 21.3,20 21.2,20 21.1,20 21,20 20.9,20 20.9,20 20.8,20 20.7,20 
			20.7,20 20.6,20 20.5,19.9 20.5,19.9 20.4,19.9 20.4,19.9 20.5,19.1 20.6,19.1 20.6,19.2 20.6,19.2 20.7,19.2 20.8,19.2 
			20.8,19.2 20.9,19.2 21,19.2 21.1,19.3 21.2,19.3 21.3,19.3 21.3,19.3 21.4,19.3 21.5,19.3 21.6,19.3 21.7,19.3 21.8,19.3 
			21.9,19.2 22,19.2 22,19.2 22.1,19.1 22.1,19.1 22.1,19 22.1,18.9 22.1,18.9 22.1,18.8 22,18.7 21.9,18.6 21.8,18.6 21.7,18.5 
			21.6,18.5 21.5,18.4 21.3,18.4 21.2,18.3 21.1,18.2 21,18.1 20.9,18 20.8,17.8 20.8,17.6 20.8,17.4 20.8,17.3 20.8,17.2 
			20.9,17.1 20.9,16.9 21,16.8 21,16.8 21.1,16.7 21.2,16.6 21.3,16.5 21.4,16.5 21.5,16.4 21.7,16.4 21.8,16.4 22,16.3 22.2,16.3 
			22.4,16.3 22.5,16.3 22.6,16.3 22.7,16.3 22.8,16.3 22.9,16.3 23,16.3 23,16.4 23.1,16.4 23.1,16.4 23.2,16.4 23.2,16.4 
			23.3,16.4 23.3,16.4 23.3,16.4 23.4,16.4 23.4,16.4 23.2,17.2 23.2,17.2 		"/>
		<polyline class="st4" points="23.2,17.2 23.2,17.2 23.2,17.2 23.1,17.2 23.1,17.2 23,17.2 23,17.1 23,17.1 22.9,17.1 22.9,17.1 
			22.8,17.1 22.8,17.1 22.7,17.1 22.6,17.1 22.6,17.1 22.5,17.1 22.4,17.1 22.3,17.1 22.3,17.1 22.2,17.1 22.2,17.1 22.1,17.2 
			22.1,17.2 22,17.2 22,17.2 21.9,17.3 21.9,17.3 21.9,17.3 21.9,17.4 21.9,17.4 21.9,17.5 21.9,17.5 21.9,17.5 21.9,17.6 
			21.9,17.6 21.9,17.6 22,17.7 22.1,17.7 22.2,17.8 22.3,17.8 22.4,17.9 22.5,17.9 22.6,17.9 22.7,18 22.8,18 22.9,18.1 23,18.2 
			23.1,18.3 23.1,18.4 23.2,18.6 23.2,18.8 23.2,19 23.2,19 23.1,19.1 23.1,19.3 23.1,19.4 23,19.5 22.9,19.6 22.8,19.7 22.7,19.8 
			22.6,19.8 22.5,19.9 22.4,19.9 22.3,20 22.2,20 22.1,20 21.9,20 21.8,20 21.7,20 21.7,20 21.6,20 21.4,20 21.3,20 21.2,20 
			21.1,20 21,20 20.9,20 20.9,20 20.8,20 20.7,20 20.7,20 20.6,20 20.5,19.9 20.5,19.9 20.4,19.9 20.4,19.9 20.5,19.1 20.5,19.1 
			20.6,19.1 20.6,19.2 20.6,19.2 20.7,19.2 20.8,19.2 20.8,19.2 20.9,19.2 21,19.2 21.1,19.3 21.2,19.3 21.3,19.3 21.3,19.3 
			21.4,19.3 21.5,19.3 21.6,19.3 21.7,19.3 21.7,19.3 21.8,19.3 21.9,19.2 22,19.2 22,19.2 22.1,19.1 22.1,19.1 22.1,19 22.1,18.9 
			22.1,18.9 22.1,18.9 22.1,18.8 22,18.7 21.9,18.6 21.8,18.6 21.7,18.5 21.6,18.5 21.5,18.4 21.3,18.4 21.2,18.3 21.1,18.2 
			21,18.1 20.9,18 20.8,17.8 20.8,17.6 20.8,17.4 20.8,17.4 20.8,17.3 20.8,17.2 20.9,17.1 20.9,16.9 21,16.8 21,16.8 21.1,16.7 
			21.2,16.6 21.3,16.5 21.4,16.5 21.5,16.4 21.7,16.4 21.8,16.4 22,16.3 22.2,16.3 22.4,16.3 22.4,16.3 22.5,16.3 22.6,16.3 
			22.7,16.3 22.8,16.3 22.9,16.3 23,16.3 23,16.4 23.1,16.4 23.1,16.4 23.2,16.4 23.2,16.4 23.3,16.4 23.3,16.4 23.3,16.4 
			23.4,16.4 23.4,16.4 23.2,17.2 		"/>
		<polygon class="st3" points="24,15.6 25,15.6 24.8,16.4 25.4,16.4 25.3,17.2 24.7,17.1 24.3,19 24.3,19.1 24.4,19.2 24.4,19.2 
			24.4,19.2 24.5,19.3 24.6,19.3 24.6,19.3 24.7,19.3 24.8,19.3 24.9,19.3 24.9,19.3 25,19.3 25,19.3 25.1,19.2 25.1,19.2 
			25.1,19.2 25,19.9 24.9,19.9 24.9,19.9 24.9,19.9 24.9,19.9 24.8,19.9 24.8,19.9 24.8,20 24.8,20 24.7,20 24.7,20 24.7,20 
			24.6,20 24.6,20 24.5,20 24.5,20 24.4,20 24.1,20 24,20 23.9,20 23.8,20 23.7,20 23.6,19.9 23.6,19.9 23.5,19.9 23.4,19.8 
			23.4,19.8 23.4,19.7 23.4,19.6 23.4,19.6 23.4,19.5 23.4,19.4 23.4,19.4 23.4,19.3 24,15.6 24,15.6 		"/>
		<polyline class="st4" points="24,15.6 25,15.6 24.8,16.4 25.4,16.4 25.3,17.2 24.7,17.1 24.3,19 24.3,19 24.3,19.1 24.4,19.2 
			24.4,19.2 24.4,19.2 24.5,19.3 24.6,19.3 24.6,19.3 24.7,19.3 24.7,19.3 24.8,19.3 24.9,19.3 24.9,19.3 25,19.3 25,19.3 
			25.1,19.2 25.1,19.2 25.1,19.2 25,19.9 25,19.9 24.9,19.9 24.9,19.9 24.9,19.9 24.9,19.9 24.8,19.9 24.8,19.9 24.8,20 24.8,20 
			24.7,20 24.7,20 24.7,20 24.6,20 24.6,20 24.5,20 24.5,20 24.4,20 24.1,20 24.1,20 24,20 23.9,20 23.8,20 23.7,20 23.6,19.9 
			23.6,19.9 23.5,19.9 23.4,19.8 23.4,19.8 23.4,19.7 23.4,19.6 23.4,19.6 23.4,19.5 23.4,19.4 23.4,19.4 23.4,19.3 24,15.6 		"/>
		<polyline class="st4" points="26.1,18.4 26.1,18.4 26.1,18.5 26.1,18.6 26.1,18.6 26.1,18.7 26.2,18.7 26.2,18.8 26.2,18.9 
			26.3,18.9 26.3,19 26.4,19 26.4,19.1 26.5,19.1 26.6,19.2 26.6,19.2 26.7,19.2 26.8,19.2 26.8,19.2 26.8,19.3 26.9,19.3 27,19.3 
			27.1,19.3 27.2,19.3 27.3,19.3 27.4,19.3 27.5,19.3 27.6,19.3 27.6,19.2 27.7,19.2 27.8,19.2 27.9,19.2 28,19.1 28.1,19.1 
			28.2,19 28.1,19.8 28.1,19.8 28,19.9 28,19.9 27.9,19.9 27.9,19.9 27.8,19.9 27.8,20 27.7,20 27.7,20 27.6,20 27.5,20 27.5,20 
			27.4,20 27.3,20 27.2,20 27.1,20 27,20 27,20 26.8,20 26.6,20 26.5,20 26.3,19.9 26.1,19.9 26,19.8 25.8,19.7 25.7,19.6 
			25.6,19.5 25.4,19.4 25.3,19.2 25.3,19.1 25.2,18.9 25.2,18.6 25.2,18.4 25.2,18.1 25.2,18.1 25.2,18 25.2,17.9 25.2,17.7 
			25.3,17.6 25.3,17.4 25.4,17.3 25.5,17.1 25.6,17 25.7,16.9 25.8,16.7 25.9,16.6 26.1,16.5 26.3,16.4 26.5,16.4 26.8,16.3 
			27,16.3 27,16.3 27.2,16.3 27.3,16.3 27.5,16.4 27.6,16.4 27.7,16.4 27.9,16.5 28,16.6 28.1,16.7 28.2,16.8 28.3,16.9 28.4,17.1 
			28.4,17.3 28.4,17.5 28.4,17.7 28.4,18 28.4,18.2 28.3,18.5 25.9,18.5 26,17.8 27.5,17.8 27.5,17.8 27.5,17.7 27.5,17.6 
			27.5,17.5 27.5,17.5 27.5,17.4 27.4,17.4 27.4,17.3 27.4,17.3 27.3,17.2 27.3,17.2 27.2,17.2 27.2,17.1 27.1,17.1 27.1,17.1 
			27,17.1 27,17.1 27,17.1 26.9,17.1 26.8,17.1 26.8,17.1 26.7,17.1 26.7,17.1 26.6,17.2 26.6,17.2 26.5,17.3 26.5,17.3 26.4,17.4 
			26.4,17.4 26.4,17.5 26.3,17.5 26.3,17.6 26.3,17.7 26.3,17.7 26.1,18.4 		"/>
		<polygon class="st3" points="34.2,16.6 34.2,16.6 34.1,16.6 34.1,16.5 34,16.5 34,16.5 33.9,16.5 33.9,16.4 33.8,16.4 33.7,16.4 
			33.7,16.4 33.6,16.4 33.5,16.4 33.5,16.4 33.4,16.4 33.3,16.4 33.2,16.4 33.1,16.4 33,16.4 33,16.4 32.9,16.4 32.8,16.4 
			32.7,16.5 32.6,16.5 32.5,16.6 32.4,16.6 32.3,16.7 32.2,16.8 32.1,17 32.1,17.1 32,17.3 31.9,17.5 31.9,17.7 31.8,17.8 
			31.8,17.9 31.8,18 31.8,18.2 31.8,18.3 31.9,18.4 31.9,18.5 31.9,18.6 32,18.7 32,18.8 32.1,18.8 32.2,18.9 32.3,19 32.4,19 
			32.5,19.1 32.6,19.1 32.7,19.1 32.7,19.1 32.8,19.1 32.9,19.1 32.9,19.1 33,19.1 33.1,19.1 33.2,19.1 33.3,19.1 33.4,19.1 
			33.4,19.1 33.5,19.1 33.6,19 33.7,19 33.8,18.9 33.8,18.9 33.7,19.8 33.7,19.8 33.6,19.8 33.6,19.8 33.6,19.8 33.5,19.9 
			33.5,19.9 33.4,19.9 33.4,19.9 33.3,20 33.2,20 33.1,20 33,20 32.9,20 32.7,20 32.5,20 32.3,20 32.2,20 32,20 31.9,19.9 
			31.7,19.8 31.6,19.8 31.4,19.7 31.3,19.5 31.2,19.4 31.1,19.2 31,19.1 30.9,18.9 30.8,18.7 30.8,18.5 30.8,18.2 30.8,17.9 
			30.8,17.7 30.8,17.5 30.9,17.4 30.9,17.3 30.9,17.1 31,17 31,16.9 31.1,16.8 31.1,16.7 31.2,16.6 31.2,16.5 31.3,16.4 31.3,16.3 
			31.4,16.2 31.5,16.1 31.5,16.1 31.6,16 31.7,15.9 31.8,15.9 31.8,15.8 31.9,15.7 32,15.7 32.1,15.6 32.2,15.6 32.3,15.6 
			32.4,15.5 32.5,15.5 32.6,15.5 32.7,15.5 32.8,15.4 33,15.4 33.1,15.4 33.2,15.4 33.3,15.4 33.4,15.4 33.5,15.4 33.6,15.5 
			33.7,15.5 33.8,15.5 33.9,15.5 34,15.5 34.1,15.5 34.1,15.6 34.2,15.6 34.3,15.6 34.3,15.6 34.3,15.6 34.4,15.7 34.4,15.7 
			34.2,16.6 34.2,16.6 		"/>
		<polyline class="st4" points="34.2,16.6 34.2,16.6 34.2,16.6 34.1,16.6 34.1,16.5 34,16.5 34,16.5 33.9,16.5 33.9,16.4 33.8,16.4 
			33.7,16.4 33.7,16.4 33.6,16.4 33.5,16.4 33.5,16.4 33.4,16.4 33.3,16.4 33.2,16.4 33.2,16.4 33.1,16.4 33,16.4 33,16.4 
			32.9,16.4 32.8,16.4 32.7,16.5 32.6,16.5 32.5,16.6 32.4,16.6 32.3,16.7 32.2,16.8 32.1,17 32.1,17.1 32,17.3 31.9,17.5 
			31.9,17.7 31.9,17.7 31.8,17.8 31.8,17.9 31.8,18 31.8,18.2 31.8,18.3 31.9,18.4 31.9,18.5 31.9,18.6 32,18.7 32,18.8 32.1,18.8 
			32.2,18.9 32.3,19 32.4,19 32.5,19.1 32.6,19.1 32.6,19.1 32.7,19.1 32.7,19.1 32.8,19.1 32.9,19.1 32.9,19.1 33,19.1 33.1,19.1 
			33.2,19.1 33.3,19.1 33.4,19.1 33.4,19.1 33.5,19.1 33.6,19 33.7,19 33.8,18.9 33.8,18.9 33.7,19.8 33.7,19.8 33.7,19.8 
			33.6,19.8 33.6,19.8 33.6,19.8 33.5,19.9 33.5,19.9 33.4,19.9 33.4,19.9 33.3,20 33.2,20 33.1,20 33,20 32.9,20 32.7,20 32.5,20 
			32.3,20 32.3,20 32.2,20 32,20 31.9,19.9 31.7,19.8 31.6,19.8 31.4,19.7 31.3,19.5 31.2,19.4 31.1,19.2 31,19.1 30.9,18.9 
			30.8,18.7 30.8,18.5 30.8,18.2 30.8,17.9 30.8,17.7 30.8,17.7 30.8,17.5 30.9,17.4 30.9,17.3 30.9,17.1 31,17 31,16.9 31.1,16.8 
			31.1,16.7 31.2,16.6 31.2,16.5 31.3,16.4 31.3,16.3 31.4,16.2 31.5,16.1 31.5,16.1 31.6,16 31.7,15.9 31.8,15.9 31.8,15.8 
			31.9,15.7 32,15.7 32.1,15.6 32.2,15.6 32.3,15.6 32.4,15.5 32.5,15.5 32.6,15.5 32.7,15.5 32.8,15.4 33,15.4 33.1,15.4 
			33.2,15.4 33.2,15.4 33.3,15.4 33.4,15.4 33.5,15.4 33.6,15.5 33.7,15.5 33.8,15.5 33.9,15.5 34,15.5 34.1,15.5 34.1,15.6 
			34.2,15.6 34.3,15.6 34.3,15.6 34.3,15.6 34.4,15.7 34.4,15.7 34.2,16.6 		"/>
		<polygon class="st3" points="42.6,20 41.6,20 41.7,19.6 41.7,19.6 41.6,19.7 41.6,19.7 41.5,19.8 41.5,19.8 41.4,19.9 41.3,19.9 
			41.3,20 41.2,20 41.2,20 41.1,20 41,20 41,20.1 40.9,20.1 40.8,20.1 40.8,20.1 40.7,20.1 40.5,20.1 40.4,20 40.2,20 40.1,19.9 
			39.9,19.8 39.8,19.7 39.7,19.5 39.7,19.4 39.6,19.3 39.5,19.1 39.5,18.9 39.5,18.8 39.5,18.6 39.5,18.4 39.5,18.2 39.5,18.1 
			39.6,17.9 39.6,17.7 39.7,17.5 39.8,17.3 39.9,17.2 40,17 40.1,16.9 40.2,16.8 40.3,16.7 40.4,16.6 40.6,16.6 40.7,16.5 
			40.8,16.5 41,16.4 41.1,16.4 41.2,16.4 41.3,16.4 41.4,16.4 41.5,16.4 41.6,16.4 41.7,16.5 41.7,16.5 41.8,16.5 41.9,16.6 
			41.9,16.6 42,16.7 42,16.7 42.1,16.8 42.1,16.8 42.1,16.8 42.2,16.9 42.2,16.9 42.2,16.9 42.4,15.6 43.3,15.6 42.6,20 42.6,20 		
			"/>
		<polyline class="st4" points="42.6,20 41.6,20 41.7,19.6 41.7,19.6 41.7,19.6 41.6,19.7 41.6,19.7 41.5,19.8 41.5,19.8 41.4,19.9 
			41.3,19.9 41.3,20 41.2,20 41.2,20 41.1,20 41,20 41,20.1 40.9,20.1 40.8,20.1 40.8,20.1 40.7,20.1 40.7,20.1 40.5,20.1 40.4,20 
			40.2,20 40.1,19.9 39.9,19.8 39.8,19.7 39.7,19.5 39.7,19.4 39.6,19.3 39.5,19.1 39.5,18.9 39.5,18.8 39.5,18.6 39.5,18.4 
			39.5,18.2 39.5,18.1 39.5,18.1 39.6,17.9 39.6,17.7 39.7,17.5 39.8,17.3 39.9,17.2 40,17 40.1,16.9 40.2,16.8 40.3,16.7 
			40.4,16.6 40.6,16.6 40.7,16.5 40.8,16.5 41,16.4 41.1,16.4 41.2,16.4 41.2,16.4 41.3,16.4 41.4,16.4 41.5,16.4 41.6,16.4 
			41.7,16.5 41.7,16.5 41.8,16.5 41.9,16.6 41.9,16.6 42,16.7 42,16.7 42.1,16.8 42.1,16.8 42.1,16.8 42.2,16.9 42.2,16.9 
			42.2,16.9 42.4,15.6 43.3,15.6 42.6,20 		"/>
		<polygon class="st1" points="41,19.2 41.1,19.2 41.2,19.2 41.3,19.2 41.4,19.1 41.4,19.1 41.5,19 41.6,19 41.6,18.9 41.7,18.8 
			41.7,18.8 41.8,18.7 41.8,18.6 41.9,18.5 41.9,18.4 41.9,18.3 41.9,18.2 41.9,18.2 41.9,18.1 41.9,18 41.9,17.9 41.9,17.8 
			41.9,17.7 41.9,17.6 41.9,17.5 41.8,17.5 41.8,17.4 41.7,17.3 41.7,17.3 41.6,17.3 41.6,17.2 41.5,17.2 41.4,17.2 41.4,17.2 
			41.3,17.2 41.2,17.3 41.1,17.3 41,17.3 41,17.4 40.9,17.4 40.9,17.5 40.8,17.6 40.8,17.7 40.7,17.7 40.7,17.8 40.6,17.9 40.6,18 
			40.6,18.1 40.6,18.2 40.6,18.4 40.6,18.5 40.6,18.7 40.6,18.9 40.7,19 40.8,19.1 40.9,19.2 41,19.2 41,19.2 		"/>
		<polygon class="st3" points="20.2,19.3 20.1,20 19.2,20 19.3,19.9 19.3,19.8 19.3,19.7 19.3,19.6 19.3,19.7 19.2,19.7 19.1,19.8 
			19.1,19.8 19,19.9 18.9,19.9 18.8,19.9 18.7,20 18.6,20 18.5,20 18.4,20.1 18.3,20.1 18.2,20.1 18.1,20.1 18,20.1 17.9,20.1 
			17.8,20 17.7,20 17.6,19.9 17.5,19.9 17.5,19.8 17.4,19.8 17.3,19.7 17.3,19.7 17.2,19.6 17.2,19.5 17.2,19.4 17.2,19.4 
			17.2,19.3 17.1,19.2 17.1,19.1 17.1,19.1 17.1,18.9 17.2,18.8 17.2,18.7 17.2,18.6 17.3,18.5 17.4,18.4 17.4,18.3 17.5,18.2 
			17.6,18.1 17.7,18 17.8,18 17.9,17.9 18,17.9 18.1,17.8 18.2,17.8 18.3,17.8 18.4,17.8 18.4,17.8 18.4,17.8 18.4,17.8 18.5,17.8 
			18.5,17.7 18.6,17.7 18.6,17.7 18.7,17.7 18.7,17.7 18.8,17.7 18.9,17.7 18.9,17.7 19,17.7 19,17.7 19,17.7 19.1,17.7 19.2,17.7 
			19.3,17.7 19.4,17.7 19.4,17.7 19.5,17.7 19.5,17.7 19.5,17.7 19.5,17.7 19.5,17.6 19.6,17.6 19.6,17.5 19.5,17.4 19.5,17.4 
			19.5,17.3 19.4,17.2 19.4,17.2 19.3,17.2 19.2,17.1 19.1,17.1 19,17.1 18.9,17.1 18.8,17.1 18.7,17.1 18.6,17.1 18.5,17.2 
			18.4,17.2 18.3,17.2 18.2,17.2 18.1,17.2 18,17.2 17.9,17.2 17.8,17.3 17.8,17.3 17.7,17.3 17.7,17.3 17.9,16.5 18,16.5 
			18.1,16.5 18.2,16.4 18.2,16.4 18.3,16.4 18.4,16.4 18.5,16.4 18.6,16.4 18.7,16.4 18.8,16.4 18.9,16.3 19,16.3 19.1,16.3 
			19.2,16.3 19.3,16.4 19.4,16.4 19.5,16.4 19.6,16.4 19.7,16.4 19.8,16.4 20,16.5 20.1,16.5 20.2,16.6 20.3,16.6 20.3,16.7 
			20.4,16.8 20.5,16.9 20.5,17 20.6,17.1 20.6,17.2 20.6,17.3 20.6,17.5 20.2,19.3 20.2,19.3 		"/>
		<polyline class="st4" points="20.2,19.3 20.1,20 19.2,20 19.2,20 19.3,19.9 19.3,19.8 19.3,19.7 19.3,19.6 19.3,19.6 19.3,19.7 
			19.2,19.7 19.1,19.8 19.1,19.8 19,19.9 18.9,19.9 18.8,19.9 18.7,20 18.6,20 18.5,20 18.4,20.1 18.3,20.1 18.2,20.1 18.1,20.1 
			18,20.1 17.9,20.1 17.9,20.1 17.8,20 17.7,20 17.6,19.9 17.5,19.9 17.5,19.8 17.4,19.8 17.3,19.7 17.3,19.7 17.2,19.6 17.2,19.5 
			17.2,19.4 17.2,19.4 17.2,19.3 17.1,19.2 17.1,19.1 17.1,19.1 17.1,19.1 17.1,18.9 17.2,18.8 17.2,18.7 17.2,18.6 17.3,18.5 
			17.4,18.4 17.4,18.3 17.5,18.2 17.6,18.1 17.7,18 17.8,18 17.9,17.9 18,17.9 18.1,17.8 18.2,17.8 18.3,17.8 18.3,17.8 18.4,17.8 
			18.4,17.8 18.4,17.8 18.4,17.8 18.5,17.8 18.5,17.7 18.6,17.7 18.6,17.7 18.7,17.7 18.7,17.7 18.8,17.7 18.9,17.7 18.9,17.7 
			19,17.7 19,17.7 19,17.7 19,17.7 19.1,17.7 19.2,17.7 19.3,17.7 19.4,17.7 19.4,17.7 19.5,17.7 19.5,17.7 19.5,17.7 19.5,17.7 
			19.5,17.7 19.5,17.6 19.6,17.6 19.6,17.5 19.6,17.5 19.5,17.4 19.5,17.4 19.5,17.3 19.4,17.2 19.4,17.2 19.3,17.2 19.2,17.1 
			19.1,17.1 19.1,17.1 19,17.1 18.9,17.1 18.8,17.1 18.7,17.1 18.6,17.1 18.5,17.2 18.4,17.2 18.3,17.2 18.2,17.2 18.1,17.2 
			18,17.2 17.9,17.2 17.8,17.3 17.8,17.3 17.7,17.3 17.7,17.3 17.9,16.5 17.9,16.5 18,16.5 18.1,16.5 18.2,16.4 18.2,16.4 
			18.3,16.4 18.4,16.4 18.5,16.4 18.6,16.4 18.7,16.4 18.8,16.4 18.9,16.3 19,16.3 19.1,16.3 19.2,16.3 19.3,16.4 19.4,16.4 
			19.4,16.4 19.5,16.4 19.6,16.4 19.7,16.4 19.8,16.4 20,16.5 20.1,16.5 20.2,16.6 20.3,16.6 20.3,16.7 20.4,16.8 20.5,16.9 
			20.5,17 20.6,17.1 20.6,17.2 20.6,17.3 20.6,17.5 20.2,19.3 		"/>
		<polygon class="st2" points="19.4,18.4 19.4,18.4 19.4,18.4 19.4,18.3 19.3,18.3 19.3,18.3 19.3,18.3 19.2,18.3 19.2,18.3 
			19.1,18.3 19,18.3 19,18.3 18.9,18.3 18.9,18.4 18.8,18.4 18.8,18.4 18.8,18.4 18.7,18.4 18.7,18.4 18.7,18.4 18.6,18.4 
			18.6,18.5 18.5,18.5 18.5,18.5 18.4,18.5 18.4,18.6 18.4,18.6 18.3,18.6 18.3,18.7 18.2,18.7 18.2,18.8 18.2,18.8 18.2,18.9 
			18.2,19 18.2,19.1 18.2,19.2 18.3,19.2 18.3,19.2 18.4,19.3 18.4,19.3 18.5,19.3 18.6,19.3 18.7,19.3 18.8,19.2 18.9,19.2 
			18.9,19.2 19,19.2 19,19.1 19.1,19.1 19.1,19.1 19.2,19 19.2,19 19.2,18.9 19.3,18.9 19.3,18.9 19.3,18.8 19.3,18.8 19.3,18.7 
			19.4,18.6 19.4,18.5 19.4,18.4 19.4,18.4 		"/>
		<polygon class="st3" points="13.1,20 12.2,20 12.9,15.6 14.5,15.6 14.7,18.2 15.8,15.6 17.5,15.6 16.7,20 15.8,20 16.4,16.7 
			16.3,16.7 14.9,20 13.9,20 13.9,19.9 13.9,19.5 13.8,19 13.8,18.4 13.8,17.8 13.7,17.2 13.7,16.9 13.7,16.7 13.7,16.7 13.7,16.7 
			13.7,16.7 13.7,16.7 13.1,20 13.1,20 		"/>
		<polyline class="st4" points="13.1,20 12.2,20 12.9,15.6 14.5,15.6 14.7,18.2 15.8,15.6 17.5,15.6 16.7,20 15.8,20 16.4,16.7 
			16.3,16.7 14.9,20 13.9,20 13.9,20 13.9,19.9 13.9,19.5 13.8,19 13.8,18.4 13.8,17.8 13.7,17.2 13.7,16.9 13.7,16.7 13.7,16.7 
			13.7,16.7 13.7,16.7 13.7,16.7 13.7,16.7 13.1,20 		"/>
		<polygon class="st3" points="37,19.3 36.9,20 36.1,20 36.1,19.9 36.1,19.8 36.1,19.7 36.1,19.6 36,19.7 36,19.7 35.9,19.8 
			35.8,19.8 35.8,19.9 35.7,19.9 35.6,20 35.5,20 35.4,20 35.3,20 35.2,20.1 35.1,20.1 35,20.1 35,20.1 34.9,20.1 34.8,20.1 
			34.6,20 34.5,20 34.4,19.9 34.4,19.9 34.3,19.8 34.2,19.8 34.2,19.7 34.1,19.7 34.1,19.6 34,19.5 34,19.4 34,19.4 34,19.3 
			34,19.2 34,19.1 34,19.1 34,18.9 34,18.8 34,18.7 34.1,18.6 34.1,18.5 34.2,18.4 34.3,18.3 34.3,18.2 34.4,18.1 34.5,18 34.6,18 
			34.7,17.9 34.8,17.9 34.9,17.8 35,17.8 35.2,17.8 35.2,17.8 35.2,17.8 35.2,17.8 35.2,17.8 35.3,17.8 35.3,17.7 35.4,17.7 
			35.4,17.7 35.5,17.7 35.6,17.7 35.6,17.7 35.7,17.7 35.7,17.7 35.8,17.7 35.8,17.7 35.9,17.7 35.9,17.7 36,17.7 36.1,17.7 
			36.2,17.7 36.2,17.7 36.3,17.7 36.3,17.7 36.3,17.7 36.3,17.7 36.4,17.6 36.4,17.6 36.4,17.5 36.4,17.4 36.3,17.4 36.3,17.3 
			36.2,17.2 36.2,17.2 36.1,17.2 36,17.1 36,17.1 35.9,17.1 35.8,17.1 35.6,17.1 35.5,17.1 35.4,17.1 35.3,17.2 35.2,17.2 
			35.1,17.2 35,17.2 34.9,17.2 34.8,17.2 34.7,17.2 34.7,17.3 34.6,17.3 34.6,17.3 34.5,17.3 34.8,16.5 34.8,16.5 34.9,16.5 
			35,16.4 35.1,16.4 35.2,16.4 35.2,16.4 35.3,16.4 35.4,16.4 35.5,16.4 35.6,16.4 35.7,16.3 35.8,16.3 35.9,16.3 36,16.3 
			36.1,16.4 36.3,16.4 36.4,16.4 36.5,16.4 36.6,16.4 36.7,16.4 36.8,16.5 36.9,16.5 37,16.6 37.1,16.6 37.2,16.7 37.2,16.8 
			37.3,16.9 37.4,17 37.4,17.1 37.4,17.2 37.4,17.3 37.4,17.5 37,19.3 37,19.3 		"/>
		<polygon class="st3" points="36.9,20 36.9,20 37.1,19.3 37,19.3 36.9,20 36.9,20 36.9,20 36.9,20 36.9,20 36.9,20 36.9,20 		"/>
		<polygon class="st3" points="36,20 36.1,20 36.9,20 36.9,20 36.1,20 36.1,20 36,20 36,20 36.1,20 36,20 36,20 		"/>
		<polygon class="st3" points="36.1,19.6 36.1,19.6 36,19.7 36,19.8 36,19.9 36,20 36.1,20 36.1,19.9 36.1,19.8 36.1,19.7 
			36.1,19.6 36.1,19.6 36.1,19.6 36.1,19.6 		"/>
		<polygon class="st3" points="34.8,20.1 34.8,20.1 34.9,20.1 35,20.1 35,20.1 35.1,20.1 35.2,20.1 35.3,20.1 35.4,20 35.5,20 
			35.6,20 35.7,19.9 35.8,19.9 35.9,19.8 35.9,19.8 36,19.7 36,19.7 36.1,19.6 36.1,19.6 36,19.7 36,19.7 35.9,19.8 35.8,19.8 
			35.8,19.9 35.7,19.9 35.6,19.9 35.5,20 35.4,20 35.3,20 35.2,20 35.1,20.1 35,20.1 35,20.1 34.9,20.1 34.8,20 34.8,20 34.8,20.1 
			34.8,20.1 		"/>
		<polygon class="st3" points="33.9,19.1 33.9,19.1 34,19.1 34,19.2 34,19.3 34,19.4 34,19.4 34,19.5 34.1,19.6 34.1,19.7 
			34.1,19.7 34.2,19.8 34.3,19.9 34.3,19.9 34.4,20 34.5,20 34.6,20 34.8,20.1 34.8,20 34.7,20 34.5,20 34.5,19.9 34.4,19.9 
			34.3,19.8 34.2,19.8 34.2,19.7 34.1,19.6 34.1,19.6 34.1,19.5 34,19.4 34,19.4 34,19.3 34,19.2 34,19.1 34,19.1 34,19.1 
			33.9,19.1 33.9,19.1 		"/>
		<polygon class="st3" points="35.2,17.7 35.2,17.7 35,17.8 34.9,17.8 34.8,17.8 34.7,17.9 34.6,17.9 34.5,18 34.4,18.1 34.3,18.2 
			34.2,18.2 34.2,18.3 34.1,18.4 34.1,18.6 34,18.7 34,18.8 34,18.9 33.9,19.1 34,19.1 34,18.9 34,18.8 34,18.7 34.1,18.6 
			34.1,18.5 34.2,18.4 34.3,18.3 34.4,18.2 34.4,18.1 34.5,18 34.6,18 34.7,17.9 34.8,17.9 34.9,17.8 35.1,17.8 35.2,17.8 
			35.2,17.8 35.2,17.7 35.2,17.7 		"/>
		<polygon class="st3" points="35.9,17.7 35.9,17.7 35.8,17.7 35.8,17.7 35.7,17.7 35.7,17.7 35.6,17.7 35.6,17.7 35.5,17.7 
			35.4,17.7 35.4,17.7 35.3,17.7 35.3,17.7 35.2,17.7 35.2,17.7 35.2,17.7 35.2,17.7 35.2,17.7 35.2,17.8 35.2,17.8 35.2,17.8 
			35.2,17.8 35.2,17.8 35.3,17.8 35.3,17.8 35.4,17.8 35.4,17.8 35.5,17.7 35.6,17.7 35.6,17.7 35.7,17.7 35.7,17.7 35.8,17.7 
			35.8,17.7 35.9,17.7 35.9,17.7 35.9,17.7 35.9,17.7 		"/>
		<polygon class="st3" points="36.3,17.7 36.3,17.7 36.3,17.7 36.3,17.7 36.2,17.7 36.2,17.7 36.1,17.7 36,17.7 35.9,17.7 
			35.9,17.7 35.9,17.7 35.9,17.7 36,17.7 36.1,17.7 36.2,17.7 36.2,17.7 36.3,17.7 36.3,17.7 36.3,17.7 36.4,17.7 36.3,17.7 
			36.4,17.7 36.4,17.7 36.3,17.7 36.3,17.7 		"/>
		<polygon class="st3" points="36.4,17.5 36.4,17.5 36.3,17.6 36.3,17.6 36.3,17.7 36.3,17.7 36.4,17.7 36.4,17.7 36.4,17.6 
			36.4,17.6 36.4,17.5 36.4,17.5 36.4,17.5 36.4,17.5 		"/>
		<polygon class="st3" points="36,17.2 36,17.2 36,17.2 36.1,17.2 36.2,17.2 36.2,17.3 36.3,17.3 36.3,17.4 36.3,17.4 36.4,17.5 
			36.4,17.5 36.4,17.4 36.4,17.3 36.3,17.3 36.3,17.2 36.2,17.2 36.1,17.1 36,17.1 36,17.1 36,17.1 36,17.2 36,17.2 		"/>
		<polygon class="st3" points="34.5,17.3 34.5,17.3 34.6,17.3 34.6,17.3 34.7,17.3 34.7,17.3 34.8,17.2 34.9,17.2 35,17.2 
			35.1,17.2 35.2,17.2 35.3,17.2 35.4,17.2 35.5,17.2 35.6,17.2 35.8,17.2 35.9,17.2 36,17.2 36,17.1 35.9,17.1 35.8,17.1 
			35.6,17.1 35.5,17.1 35.4,17.1 35.3,17.1 35.2,17.1 35.1,17.2 35,17.2 34.9,17.2 34.8,17.2 34.7,17.2 34.7,17.2 34.6,17.3 
			34.5,17.3 34.5,17.3 34.5,17.3 34.5,17.3 34.5,17.3 		"/>
		<polygon class="st3" points="34.7,16.5 34.7,16.5 34.5,17.3 34.5,17.3 34.8,16.5 34.8,16.5 34.7,16.5 34.7,16.5 34.7,16.5 
			34.7,16.5 34.7,16.5 		"/>
		<polygon class="st3" points="36.3,16.3 36.3,16.3 36.1,16.3 36,16.3 35.9,16.3 35.8,16.3 35.7,16.3 35.6,16.3 35.5,16.3 
			35.4,16.3 35.3,16.3 35.2,16.4 35.1,16.4 35.1,16.4 35,16.4 34.9,16.4 34.8,16.5 34.7,16.5 34.8,16.5 34.8,16.5 34.9,16.5 
			35,16.5 35.1,16.4 35.2,16.4 35.2,16.4 35.3,16.4 35.4,16.4 35.5,16.4 35.6,16.4 35.7,16.4 35.8,16.4 35.9,16.4 36,16.4 
			36.1,16.4 36.3,16.4 36.3,16.4 36.3,16.3 36.3,16.3 		"/>
		<polygon class="st3" points="37.4,17.5 37.4,17.5 37.4,17.3 37.4,17.2 37.4,17.1 37.4,17 37.3,16.9 37.3,16.8 37.2,16.7 
			37.1,16.6 37,16.6 36.9,16.5 36.8,16.5 36.7,16.4 36.6,16.4 36.5,16.4 36.4,16.3 36.3,16.3 36.3,16.4 36.4,16.4 36.4,16.4 
			36.6,16.4 36.7,16.5 36.8,16.5 36.9,16.5 37,16.6 37.1,16.7 37.1,16.7 37.2,16.8 37.3,16.9 37.3,17 37.4,17.1 37.4,17.2 
			37.4,17.3 37.4,17.5 37.4,17.5 37.4,17.5 37.4,17.5 		"/>
		<polygon class="st3" points="37.1,19.3 37.1,19.3 37.4,17.5 37.4,17.5 37,19.3 37,19.3 37.1,19.3 37.1,19.3 		"/>
		<polygon class="st1" points="36.2,18.4 36.2,18.4 36.2,18.3 36.2,18.3 36.1,18.3 36.1,18.3 36.1,18.3 36,18.3 36,18.3 35.9,18.3 
			35.9,18.3 35.8,18.3 35.7,18.4 35.7,18.4 35.7,18.4 35.6,18.4 35.6,18.4 35.6,18.4 35.5,18.4 35.5,18.4 35.5,18.4 35.4,18.4 
			35.4,18.5 35.3,18.5 35.3,18.5 35.2,18.5 35.2,18.6 35.2,18.6 35.1,18.7 35.1,18.7 35.1,18.8 35,18.8 35,18.9 35,19 35,19.1 
			35.1,19.2 35.1,19.2 35.2,19.2 35.2,19.3 35.3,19.3 35.3,19.3 35.4,19.3 35.5,19.3 35.6,19.2 35.7,19.2 35.8,19.2 35.8,19.2 
			35.9,19.1 36,19.1 36,19 36,19 36.1,19 36.1,18.9 36.1,18.9 36.1,18.8 36.2,18.8 36.2,18.8 36.2,18.7 36.2,18.6 36.2,18.5 
			36.2,18.4 36.2,18.4 		"/>
		<polygon class="st3" points="43.2,19.6 43.2,19.5 43.2,19.4 43.3,19.3 43.3,19.2 43.4,19.2 43.5,19.1 43.6,19.1 43.7,19.1 
			43.8,19.1 43.9,19.1 43.9,19.2 44,19.2 44.1,19.3 44.1,19.4 44.1,19.5 44.2,19.6 44.1,19.6 44,19.5 44,19.4 44,19.4 43.9,19.3 
			43.9,19.3 43.8,19.2 43.8,19.2 43.7,19.2 43.6,19.2 43.5,19.2 43.5,19.3 43.4,19.3 43.4,19.4 43.3,19.4 43.3,19.5 43.3,19.6 
			43.2,19.6 43.2,19.6 		"/>
		<polygon class="st3" points="43.5,19.6 43.5,19.4 43.7,19.4 43.7,19.4 43.8,19.4 43.8,19.4 43.8,19.4 43.8,19.4 43.9,19.4 
			43.9,19.5 43.9,19.5 43.9,19.5 43.9,19.5 43.8,19.6 43.8,19.6 43.7,19.6 43.7,19.6 43.7,19.6 43.8,19.5 43.8,19.5 43.8,19.5 
			43.8,19.5 43.8,19.5 43.8,19.5 43.8,19.5 43.8,19.4 43.8,19.4 43.8,19.4 43.7,19.4 43.7,19.4 43.7,19.4 43.7,19.4 43.6,19.4 
			43.6,19.6 43.5,19.6 43.5,19.6 		"/>
		<polygon class="st3" points="43.2,19.6 43.2,19.6 43.2,19.7 43.2,19.8 43.3,19.9 43.3,19.9 43.4,20 43.5,20 43.6,20 43.7,20.1 
			43.8,20 43.9,20 43.9,20 44,19.9 44.1,19.9 44.1,19.8 44.1,19.7 44.2,19.6 44.2,19.6 44.1,19.6 44.1,19.6 44,19.7 44,19.7 
			44,19.8 43.9,19.9 43.9,19.9 43.8,19.9 43.8,20 43.7,20 43.6,20 43.5,19.9 43.5,19.9 43.4,19.9 43.4,19.8 43.3,19.7 43.3,19.7 
			43.3,19.6 43.3,19.6 43.2,19.6 43.2,19.6 		"/>
		<polygon class="st3" points="43.5,19.6 43.5,19.8 43.6,19.8 43.6,19.6 43.7,19.6 43.8,19.8 43.8,19.8 43.7,19.6 43.8,19.6 
			43.8,19.6 43.8,19.6 43.8,19.6 43.8,19.6 43.7,19.6 43.7,19.6 43.6,19.6 43.6,19.6 43.5,19.6 43.5,19.6 		"/>
		<path class="st4" d="M43.2,19.6L43.2,19.6L43.2,19.6l0-0.2l0-0.1l0.1-0.1l0.1-0.1l0.1,0l0.1,0l0.1,0l0,0l0.1,0l0.1,0l0.1,0
			l0.1,0.1l0.1,0.1l0,0.1l0,0.1l0,0.1l0,0l0,0.1l0,0.1l0,0.1L44,19.9L43.9,20l-0.1,0l-0.1,0l-0.1,0l0,0l-0.1,0l-0.1,0l-0.1,0
			l-0.1-0.1l-0.1-0.1l0-0.1L43.2,19.6L43.2,19.6 M43.6,19.8L43.6,19.8l-0.1-0.4h0.2l0,0l0,0l0,0l0,0l0,0l0,0l0,0l0,0l0,0l0,0l0,0
			l0,0l0,0l0,0l0,0l0,0l0,0h0l0.1,0.2h-0.1l-0.1-0.2h-0.1V19.8 M43.7,19.6L43.7,19.6L43.7,19.6L43.7,19.6L43.7,19.6L43.7,19.6l0.1,0
			l0,0l0,0v0l0,0l0,0l0,0l0,0l0,0l0,0l0,0h0h0h-0.1L43.7,19.6L43.7,19.6 M43.7,20L43.7,20L43.7,20l0.2,0l0.1,0l0.1,0l0-0.1l0-0.1
			l0-0.1l0-0.1l0,0l0-0.1l0-0.1l0-0.1l0-0.1l-0.1,0l-0.1,0l-0.1,0l-0.1,0l0,0l-0.1,0l-0.1,0l-0.1,0l-0.1,0l0,0.1l0,0.1l0,0.1l0,0.1
			l0,0l0,0.1l0,0.1l0,0.1l0,0.1l0.1,0l0.1,0L43.7,20L43.7,20"/>
		<polygon class="st3" points="37.3,20 38.3,20 38.3,20 38.6,18.1 38.6,18 38.6,17.9 38.6,17.9 38.7,17.8 38.7,17.7 38.7,17.7 
			38.8,17.6 38.8,17.5 38.9,17.5 39,17.4 39.1,17.4 39.1,17.3 39.2,17.3 39.3,17.3 39.5,17.2 39.6,17.2 39.6,17.2 39.7,17.2 
			39.7,17.2 39.7,17.2 39.8,16.4 39.7,16.4 39.7,16.4 39.6,16.4 39.5,16.4 39.4,16.4 39.3,16.5 39.3,16.5 39.2,16.6 39.1,16.6 
			39.1,16.6 39,16.7 39,16.8 38.9,16.8 38.9,16.9 38.8,16.9 38.8,17 38.9,16.4 37.9,16.4 37.3,20 37.3,20 37.3,20 		"/>
		<polyline class="st4" points="37.3,20 38.3,20 38.3,20 38.6,18.1 38.6,18.1 38.6,18 38.6,17.9 38.6,17.9 38.7,17.8 38.7,17.7 
			38.7,17.7 38.8,17.6 38.8,17.5 38.9,17.5 39,17.4 39.1,17.4 39.1,17.3 39.2,17.3 39.3,17.3 39.5,17.2 39.6,17.2 39.6,17.2 
			39.6,17.2 39.7,17.2 39.7,17.2 39.7,17.2 39.8,16.4 39.8,16.4 39.7,16.4 39.7,16.4 39.6,16.4 39.5,16.4 39.4,16.4 39.3,16.5 
			39.3,16.5 39.2,16.6 39.1,16.6 39.1,16.6 39,16.7 39,16.8 38.9,16.8 38.9,16.9 38.8,16.9 38.8,17 38.9,16.4 37.9,16.4 37.3,20 
			37.3,20 		"/>
		<polygon class="st3" points="28.3,20 29.3,20 29.3,20 29.6,18.1 29.6,18 29.6,17.9 29.7,17.9 29.7,17.8 29.7,17.7 29.8,17.7 
			29.8,17.6 29.8,17.6 29.9,17.5 30,17.5 30,17.4 30.1,17.4 30.2,17.3 30.3,17.3 30.4,17.3 30.6,17.3 30.6,17.3 30.6,17.3 
			30.6,17.3 30.6,17.3 30.6,17.3 30.6,17.3 30.7,17.3 30.7,17.3 30.7,17.3 30.7,17.3 30.7,17.2 30.7,17.1 30.7,17 30.8,16.9 
			30.8,16.8 30.8,16.7 30.8,16.7 30.9,16.6 30.9,16.6 30.9,16.5 31,16.4 31,16.4 31,16.4 31,16.4 31,16.4 31,16.4 31,16.4 31,16.4 
			30.9,16.4 30.9,16.4 30.9,16.4 30.9,16.4 30.8,16.4 30.7,16.4 30.6,16.4 30.5,16.4 30.4,16.4 30.3,16.5 30.3,16.5 30.2,16.5 
			30.2,16.6 30.1,16.6 30.1,16.7 30,16.7 30,16.8 29.9,16.9 29.9,16.9 29.8,17 29.9,16.4 29,16.4 28.3,20 28.3,20 28.3,20 		"/>
		<polyline class="st4" points="28.3,20 29.3,20 29.3,20 29.6,18.1 29.6,18.1 29.6,18 29.6,17.9 29.7,17.9 29.7,17.8 29.7,17.7 
			29.8,17.7 29.8,17.6 29.8,17.6 29.9,17.5 30,17.5 30,17.4 30.1,17.4 30.2,17.3 30.3,17.3 30.4,17.3 30.6,17.3 30.6,17.3 
			30.6,17.3 30.6,17.3 30.6,17.3 30.6,17.3 30.6,17.3 30.6,17.3 30.7,17.3 30.7,17.3 30.7,17.3 30.7,17.3 30.7,17.3 30.7,17.2 
			30.7,17.1 30.7,17 30.8,16.9 30.8,16.8 30.8,16.7 30.8,16.7 30.8,16.7 30.9,16.6 30.9,16.6 30.9,16.5 31,16.4 31,16.4 31,16.4 
			31,16.4 31,16.4 31,16.4 31,16.4 31,16.4 31,16.4 30.9,16.4 30.9,16.4 30.9,16.4 30.9,16.4 30.9,16.4 30.8,16.4 30.7,16.4 
			30.6,16.4 30.5,16.4 30.4,16.4 30.3,16.5 30.3,16.5 30.2,16.5 30.2,16.6 30.1,16.6 30.1,16.7 30,16.7 30,16.8 29.9,16.9 
			29.9,16.9 29.8,17 29.9,16.4 29,16.4 28.3,20 28.3,20 		"/>
		<polygon class="st1" points="43.2,23.6 43.2,23.6 43.2,23.5 43.3,23.4 43.3,23.3 43.4,23.3 43.5,23.2 43.6,23.2 43.7,23.2 
			43.8,23.2 43.9,23.2 43.9,23.3 44,23.3 44.1,23.4 44.1,23.5 44.1,23.6 44.1,23.6 44,23.6 44,23.5 44,23.5 43.9,23.4 43.9,23.3 
			43.8,23.3 43.8,23.3 43.7,23.3 43.6,23.3 43.5,23.3 43.5,23.3 43.4,23.4 43.4,23.5 43.3,23.5 43.3,23.6 43.2,23.6 43.2,23.6 		"/>
		<polygon class="st1" points="43.5,23.6 43.5,23.5 43.7,23.5 43.7,23.5 43.8,23.5 43.8,23.5 43.8,23.5 43.8,23.5 43.9,23.5 
			43.9,23.6 43.9,23.6 43.8,23.6 43.8,23.6 43.8,23.6 43.8,23.5 43.8,23.5 43.8,23.5 43.7,23.5 43.7,23.5 43.7,23.5 43.7,23.5 
			43.6,23.5 43.6,23.6 43.5,23.6 43.5,23.6 		"/>
		<polygon class="st1" points="43.2,23.7 43.2,23.6 43.3,23.6 43.3,23.6 43.3,23.7 43.2,23.7 43.2,23.7 		"/>
		<polygon class="st1" points="43.5,23.7 43.5,23.6 43.6,23.6 43.6,23.7 43.7,23.7 43.7,23.7 43.7,23.6 43.8,23.6 43.8,23.6 
			43.8,23.6 43.8,23.6 43.8,23.6 43.8,23.6 43.9,23.6 43.9,23.6 43.9,23.6 43.9,23.6 43.8,23.7 43.8,23.7 43.5,23.7 43.5,23.7 		"/>
		<polygon class="st1" points="44.1,23.7 44,23.6 44,23.6 44.1,23.6 44.2,23.7 44.1,23.7 44.1,23.7 		"/>
		<polygon class="st1" points="43.2,23.7 43.2,23.7 43.2,23.8 43.2,23.9 43.3,23.9 43.3,24 43.4,24.1 43.5,24.1 43.6,24.1 
			43.7,24.2 43.8,24.1 43.9,24.1 43.9,24.1 44,24 44.1,23.9 44.1,23.9 44.1,23.8 44.2,23.7 44.2,23.7 44.1,23.7 44.1,23.7 44,23.8 
			44,23.8 44,23.9 43.9,24 43.9,24 43.8,24 43.8,24.1 43.7,24.1 43.6,24.1 43.5,24 43.5,24 43.4,24 43.4,23.9 43.3,23.8 43.3,23.8 
			43.3,23.7 43.3,23.7 43.2,23.7 43.2,23.7 		"/>
		<polygon class="st1" points="43.5,23.7 43.5,23.9 43.6,23.9 43.6,23.7 43.7,23.7 43.8,23.9 43.8,23.9 43.7,23.7 43.8,23.7 
			43.8,23.7 43.8,23.7 43.8,23.7 43.8,23.7 43.5,23.7 43.5,23.7 		"/>
		<path class="st3" d="M28.4,17.5l0-0.2l0-0.2l-0.1-0.2l-0.1-0.1l-0.1-0.1L28,16.6l-0.1-0.1l-0.1-0.1l-0.1-0.1l-0.1,0l-0.1,0l-0.1,0
			l-0.1,0l-0.3,0l-0.2,0l-0.2,0.1l-0.2,0.1l-0.2,0.1l-0.1,0.1l-0.1,0.1L25.6,17l-0.1,0.1l-0.1,0.1l-0.1,0.1l-0.1,0.1l0,0.1l0,0.1
			l0,0.1l0,0.1l0,0.3l0,0.3l0,0.2l0.1,0.2l0.1,0.2l0.1,0.2l0.1,0.1l0.1,0.1l0.1,0.1l0.2,0.1l0.2,0.1l0.2,0.1l0.2,0l0.2,0l0.2,0
			l0.2,0h0.1l0.1,0h0.1l0.1,0l0.1,0l0.1,0l0.1,0l0.1,0l0.1,0l0.1,0l0.1,0l0.1,0l0.1,0l0.1,0l0.1,0l0.1,0l0.1-0.8l-0.1,0.1L28,19.1
			l-0.1,0l-0.1,0l-0.1,0l-0.1,0l-0.1,0l-0.1,0l-0.1,0l-0.1,0h-0.1l-0.1,0l-0.1,0l-0.1,0l-0.1,0l-0.1,0l-0.1,0l-0.1,0l-0.1,0l-0.1,0
			l-0.1,0L26.4,19L26.3,19l0-0.1l0-0.1l0-0.1l0-0.1l0-0.1l0-0.1l0-0.1l0-0.1l0,0h2.2l0-0.2l0.1-0.3l0-0.3L28.4,17.5z M27.5,17.8
			h-1.2l0,0l0,0l0,0l0-0.1l0-0.1l0-0.1l0-0.1l0-0.1l0-0.1l0-0.1l0,0l0,0l0.1,0l0.1,0l0.1,0l0.1,0l0.1,0l0.1,0l0.1,0l0.1,0l0.1,0
			l0.1,0l0.1,0l0.1,0l0.1,0l0,0l0,0l0,0l0,0.1l0,0.1l0,0.1l0,0.1l0,0.1L27.5,17.8L27.5,17.8z"/>
	</g>
</g>
</svg>
