<?xml version="1.0" encoding="utf-8"?>
<!-- Generator: Adobe Illustrator 22.0.0, SVG Export Plug-In . SVG Version: 6.00 Build 0)  -->
<svg version="1.1" id="Layer_1" xmlns="http://www.w3.org/2000/svg" xmlns:xlink="http://www.w3.org/1999/xlink" x="0px" y="0px"
	 viewBox="0 0 56 35" style="enable-background:new 0 0 56 35;" xml:space="preserve">
<style type="text/css">
	.st0{fill:#1A3762;}
	.st1{fill:#FFFFFF;}
</style>
<g>
	<path class="st0" d="M56,33.1c0,1-0.8,1.9-1.9,1.9H1.9c-1,0-1.9-0.8-1.9-1.9V1.9C0,0.8,0.8,0,1.9,0h52.3c1,0,1.9,0.8,1.9,1.9V33.1z
		"/>
	<g>
		<path class="st1" d="M27.1,15.4c-0.2,0-0.5,0.2-0.6,0.4c0,0-1.3,2.3-1.5,2.5c-0.1,0.1-0.1,0-0.2,0c0-0.1-0.4-2.5-0.4-2.5
			c0-0.2-0.3-0.4-0.5-0.4l-0.8,0c-0.2,0-0.3,0.2-0.3,0.4c0,0,0.6,3.6,0.8,4.5c0.1,0.5,0,0.6,0,0.6l-0.8,1.4
			c-0.1,0.2-0.1,0.4,0.1,0.4l1,0c0.2,0,0.5-0.2,0.6-0.4l3.7-6.3c0,0,0.4-0.5,0-0.5C28,15.4,27.1,15.4,27.1,15.4"/>
		<path class="st1" d="M15.3,16.7c-0.3,0.2-0.7,0.3-1.2,0.3h-0.2c-0.2,0-0.3-0.2-0.3-0.4l0.3-1.2c0-0.2,0.2-0.4,0.4-0.4l0.3,0
			c0.4,0,0.6,0.1,0.8,0.2c0.2,0.1,0.3,0.3,0.3,0.6C15.8,16.2,15.6,16.4,15.3,16.7 M17.4,14.8c-0.1-0.2-0.3-0.4-0.5-0.5
			c-0.2-0.1-0.5-0.2-0.8-0.3c-0.3-0.1-0.7-0.1-1.1-0.1l-1.9,0c-0.2,0-0.4,0.2-0.4,0.4l-1.3,5.7c0,0.2,0.1,0.4,0.3,0.4h0.9
			c0.2,0,0.4-0.2,0.4-0.4l0.3-1.4c0-0.2,0.2-0.4,0.4-0.4h0.3c1.1,0,2-0.2,2.7-0.7c0.6-0.5,1-1.1,1-1.8C17.5,15.3,17.5,15,17.4,14.8"
			/>
		<path class="st1" d="M21.9,15.6c-0.4-0.2-0.9-0.3-1.7-0.3c-0.4,0-0.8,0-1.1,0.1c-0.3,0-0.3,0-0.5,0.1c-0.4,0.1-0.4,0.4-0.4,0.4
			l-0.1,0.5c-0.1,0.3,0.1,0.3,0.2,0.3c0.2,0,0.2-0.1,0.6-0.2c0.3-0.1,0.6-0.1,0.9-0.1c0.4,0,0.7,0,0.8,0.1c0.2,0.1,0.3,0.2,0.3,0.4
			c0,0,0,0.1,0,0.1c0,0,0,0.1-0.1,0.1c-0.5,0-0.9,0.1-1.4,0.1c-0.5,0.1-0.9,0.2-1.2,0.3c-0.4,0.2-0.6,0.4-0.8,0.6
			c-0.2,0.3-0.3,0.6-0.3,1c0,0.4,0.1,0.7,0.4,0.9c0.3,0.2,0.6,0.3,1,0.3c0.2,0,0.4,0,0.6-0.1c0.1,0,0.3-0.1,0.4-0.2
			c0.1-0.1,0.2-0.1,0.4-0.2c0.1-0.1,0.2-0.2,0.4-0.2l0,0l0,0.2c0,0,0,0,0,0l0,0c0,0.2,0.1,0.3,0.2,0.3l0,0h0l0,0c0.1,0,0.5,0,0.7,0
			h0.1c0,0,0,0,0,0c0.2,0,0.4-0.2,0.4-0.3l0.7-2.9c0-0.1,0-0.1,0-0.2c0-0.1,0-0.2,0-0.2C22.4,16.1,22.2,15.8,21.9,15.6z M20.2,19.1
			c-0.1,0.1-0.2,0.1-0.4,0.2c-0.2,0.1-0.3,0.1-0.5,0.1c-0.2,0-0.4,0-0.5-0.1c-0.1-0.1-0.2-0.2-0.2-0.3c0-0.2,0-0.3,0.1-0.5
			c0.1-0.1,0.2-0.2,0.4-0.3c0.2-0.1,0.4-0.1,0.6-0.1c0.2,0,0.6-0.1,0.7-0.1c0.1,0,0.1,0,0.1,0.1c0,0.1-0.1,0.6-0.2,0.8
			C20.3,19,20.2,19.1,20.2,19.1z"/>
		<path class="st1" d="M38.8,15.6c-0.4-0.2-0.9-0.3-1.7-0.3c-0.4,0-0.8,0-1.1,0.1c-0.3,0-0.3,0-0.5,0.1c-0.4,0.1-0.4,0.4-0.4,0.4
			L35,16.4c-0.1,0.3,0.1,0.3,0.2,0.3c0.2,0,0.2-0.1,0.6-0.2c0.3-0.1,0.6-0.1,0.9-0.1c0.4,0,0.7,0,0.8,0.1c0.2,0.1,0.3,0.2,0.3,0.4
			c0,0,0,0.1,0,0.1c0,0,0,0.1-0.1,0.1c-0.5,0-0.9,0.1-1.4,0.1c-0.5,0.1-0.9,0.2-1.2,0.3c-0.4,0.2-0.6,0.4-0.8,0.6
			c-0.2,0.3-0.3,0.6-0.3,1c0,0.4,0.1,0.7,0.4,0.9c0.3,0.2,0.6,0.3,1,0.3c0.2,0,0.4,0,0.6-0.1c0.1,0,0.3-0.1,0.4-0.2
			c0.1-0.1,0.2-0.1,0.4-0.2c0.1-0.1,0.2-0.2,0.4-0.2l0,0l0,0.2c0,0,0,0,0,0l0,0c0,0.2,0.1,0.3,0.2,0.3l0,0h0l0,0c0.1,0,0.5,0,0.7,0
			h0.1c0,0,0,0,0,0c0.2,0,0.4-0.2,0.4-0.4l0.7-2.9c0-0.1,0-0.1,0-0.2c0-0.1,0-0.2,0-0.2C39.3,16.1,39.1,15.8,38.8,15.6z M37.1,19.1
			c-0.1,0.1-0.2,0.1-0.4,0.2c-0.2,0.1-0.3,0.1-0.5,0.1c-0.2,0-0.4,0-0.5-0.1c-0.1-0.1-0.2-0.2-0.2-0.3c0-0.2,0-0.3,0.1-0.5
			c0.1-0.1,0.2-0.2,0.4-0.3c0.2-0.1,0.4-0.1,0.6-0.1c0.2,0,0.6-0.1,0.7-0.1c0.1,0,0.1,0,0.1,0.1c0,0.1-0.1,0.6-0.2,0.8
			C37.3,19,37.2,19.1,37.1,19.1z"/>
		<path class="st1" d="M32.3,16.7C32,16.9,31.6,17,31.1,17h-0.2c-0.2,0-0.3-0.2-0.3-0.4l0.3-1.2c0-0.2,0.2-0.4,0.4-0.4l0.3,0
			c0.4,0,0.6,0.1,0.8,0.2c0.2,0.1,0.3,0.3,0.3,0.6C32.7,16.2,32.6,16.5,32.3,16.7 M34.3,14.8c-0.1-0.2-0.3-0.4-0.5-0.5
			C33.5,14.1,33.3,14,33,14c-0.3-0.1-0.7-0.1-1.1-0.1l-1.9,0c-0.2,0-0.4,0.2-0.4,0.4l-1.3,5.7c0,0.2,0.1,0.4,0.3,0.4l0.9,0
			c0.2,0,0.4-0.2,0.4-0.4l0.3-1.4c0-0.2,0.2-0.4,0.4-0.4h0.3c1.1,0,2-0.2,2.7-0.7c0.6-0.5,1-1.1,1-1.8C34.5,15.3,34.4,15,34.3,14.8"
			/>
		<g>
			<g>
				<path class="st1" d="M42.3,14.3L42.3,14.3c0-0.2-0.1-0.4-0.3-0.4h-0.8c0,0,0,0,0,0l0,0c-0.2,0-0.4,0.1-0.4,0.3c0,0,0,0,0,0
					c0,0,0,0.1,0,0.2l-1.2,5.2c0,0.1,0,0.2-0.1,0.2l0,0c0,0.2,0.1,0.3,0.2,0.3l0,0h0.9c0.2,0,0.4-0.1,0.4-0.3c0,0,0,0,0,0L42.3,14.3
					z"/>
			</g>
		</g>
		<g>
			<path class="st1" d="M43.3,15.1raven3.2,15.1,43.2,15.1,43.3,15.1c-0.1,0-0.2,0-0.2,0c-0.1,0-0.2,0-0.2-0.1c0,0-0.1-0.1-0.1-0.2
				v-0.5h-0.1v-0.1h0.1v-0.3h0.2v0.3h0.3v0.1h-0.3v0.4c0,0,0,0.1,0,0.1c0,0,0,0.1,0,0.1c0,0,0,0,0,0c0,0,0.1,0,0.1,0
				c0,0,0.1,0,0.1,0c0,0,0,0,0.1,0h0V15.1z"/>
			<path class="st1" d="M44.8,15.1h-0.2v-0.5c0,0,0-0.1,0-0.1c0,0,0-0.1,0-0.1c0,0,0,0-0.1-0.1c0,0-0.1,0-0.1,0c0,0-0.1,0-0.1,0
				c0,0-0.1,0-0.1,0.1c0,0,0,0,0,0c0,0,0,0,0,0v0.6H44v-0.5c0,0,0-0.1,0-0.1c0,0,0-0.1,0-0.1c0,0,0,0-0.1-0.1c0,0-0.1,0-0.1,0
				c0,0-0.1,0-0.1,0c0,0-0.1,0-0.1,0.1v0.7h-0.2v-0.9h0.2v0.1c0,0,0.1-0.1,0.1-0.1c0,0,0.1,0,0.2,0c0.1,0,0.1,0,0.2,0
				c0,0,0.1,0.1,0.1,0.1c0.1-0.1,0.1-0.1,0.2-0.1c0.1,0,0.1,0,0.2,0c0.1,0,0.2,0,0.2,0.1c0,0.1,0.1,0.1,0.1,0.3V15.1z"/>
		</g>
	</g>
</g>
</svg>
