<?xml version="1.0" encoding="utf-8"?>
<!-- Generator: Adobe Illustrator 22.0.0, SVG Export Plug-In . SVG Version: 6.00 Build 0)  -->
<svg version="1.1" id="Layer_1" xmlns="http://www.w3.org/2000/svg" xmlns:xlink="http://www.w3.org/1999/xlink" x="0px" y="0px"
	 viewBox="0 0 56 35" style="enable-background:new 0 0 56 35;" xml:space="preserve">
<style type="text/css">
	.st0{fill:#3B58A5;}
	.st1{fill:#FFFFFF;}
	.st2{fill:#F7A536;}
</style>
<g>
	<path class="st0" d="M56,33.1c0,1-0.8,1.9-1.9,1.9H1.9c-1,0-1.9-0.8-1.9-1.9V1.9C0,0.8,0.8,0,1.9,0h52.3c1,0,1.9,0.8,1.9,1.9V33.1z
		"/>
	<g>
		<polygon class="st1" points="25.8,22.8 23,22.8 24.7,12.2 27.5,12.2 		"/>
		<path class="st1" d="M20.7,12.2l-2.6,7.2l-0.3-1.6v0l-0.9-4.7c0,0-0.1-0.9-1.3-0.9h-4.3l0,0.2c0,0,1.3,0.3,2.9,1.2l2.4,9.1h2.9
			l4.4-10.5H20.7z"/>
		<path class="st1" d="M42.3,22.8h2.5l-2.2-10.5h-2.2c-1,0-1.3,0.8-1.3,0.8L35,22.8h2.9l0.6-1.6h3.5L42.3,22.8z M39.2,19l1.4-3.9
			l0.8,3.9H39.2z"/>
		<path class="st1" d="M35.2,14.8l0.4-2.3c0,0-1.2-0.5-2.5-0.5c-1.4,0-4.6,0.6-4.6,3.5c0,2.7,3.8,2.7,3.8,4.2c0,1.4-3.4,1.2-4.5,0.3
			l-0.4,2.4c0,0,1.2,0.6,3.1,0.6c1.9,0,4.7-1,4.7-3.6c0-2.7-3.8-3-3.8-4.2C31.4,14,34.1,14.1,35.2,14.8z"/>
	</g>
	<path class="st2" d="M17.8,17.9l-0.9-4.7c0,0-0.1-0.9-1.3-0.9h-4.3l0,0.2c0,0,2.1,0.4,4.1,2C17.2,16,17.8,17.9,17.8,17.9z"/>
</g>
</svg>
