<?xml version="1.0" encoding="utf-8"?>
<!-- Generator: Adobe Illustrator 22.0.0, SVG Export Plug-In . SVG Version: 6.00 Build 0)  -->
<svg version="1.1" id="Layer_1" xmlns="http://www.w3.org/2000/svg" xmlns:xlink="http://www.w3.org/1999/xlink" x="0px" y="0px"
	 viewBox="0 0 56 35" style="enable-background:new 0 0 56 35;" xml:space="preserve">
<style type="text/css">
	.st0{fill:#121212;}
	.st1{fill-rule:evenodd;clip-rule:evenodd;fill:#FFDE38;}
</style>
<g>
	<path class="st0" d="M56,33.1c0,1-0.8,1.9-1.9,1.9H1.9c-1,0-1.9-0.8-1.9-1.9V1.9C0,0.8,0.8,0,1.9,0h52.3c1,0,1.9,0.8,1.9,1.9V33.1z
		"/>
	<g>
		<polygon class="st1" points="42.8,21.1 42.5,21.1 42.5,14 42.8,14 42.8,21.1 		"/>
		<polygon class="st1" points="39.4,21.1 39.1,21.1 39.1,14 39.4,14 39.4,21.1 		"/>
		<polygon class="st1" points="13.3,17.1 13.6,15.1 13.9,17.1 15.2,17.1 15.9,14 14.8,14 14.5,16 14.2,14 12.9,14 12.6,15.9 
			12.3,14 11.2,14 11.9,17.1 13.3,17.1 		"/>
		<polygon class="st1" points="16.5,17.1 19.2,17.1 19.2,16.3 17.8,16.3 17.8,16 19.1,16 19.1,15.1 17.8,15.1 17.8,14.8 19.1,14.8 
			19.1,14 16.5,14 16.5,17.1 		"/>
		<path class="st1" d="M19.8,16.1c0,0,0,0.1,0,0.1c0,0.6,0.5,1,1.6,1c1,0,1.6-0.4,1.6-1c0-0.6-0.3-0.7-1.1-1
			c-0.4-0.1-0.7-0.1-0.7-0.4c0-0.1,0.1-0.2,0.3-0.2c0.2,0,0.3,0.1,0.3,0.3h1.2v-0.1c0-0.6-0.5-0.9-1.4-0.9c-1,0-1.6,0.4-1.6,1
			c0,0.4,0.3,0.7,0.8,0.9c0.4,0.1,0.7,0.2,0.8,0.3c0.1,0,0.1,0.1,0.1,0.2c0,0.1-0.1,0.2-0.3,0.2c-0.2,0-0.3-0.1-0.3-0.4v0H19.8
			L19.8,16.1z"/>
		<polygon class="st1" points="26.2,14 23.2,14 23.2,14.8 24.1,14.8 24.1,17.1 25.4,17.1 25.4,14.8 26.2,14.8 26.2,14 		"/>
		<polygon class="st1" points="26.8,17.1 29.6,17.1 29.6,16.3 28.2,16.3 28.2,16 29.5,16 29.5,15.1 28.2,15.1 28.2,14.8 29.5,14.8 
			29.5,14 26.8,14 26.8,17.1 		"/>
		<path class="st1" d="M30.4,17.1h1.3V16c0,0,0.1,0,0.1,0c0.3,0,0.4,0.1,0.4,0.5l0,0.2c0,0.1,0.1,0.3,0.1,0.4h1.3
			c-0.1-0.2-0.1-0.4-0.1-0.6l0-0.3c-0.1-0.5-0.2-0.6-0.6-0.7c0.4-0.1,0.6-0.4,0.6-0.7c0-0.6-0.4-0.8-1.4-0.8h-1.8V17.1L30.4,17.1z
			 M31.7,15.3v-0.5c0.1,0,0.1,0,0.2,0c0.3,0,0.4,0.1,0.4,0.3C32.3,15.2,32.1,15.3,31.7,15.3C31.8,15.3,31.7,15.3,31.7,15.3
			L31.7,15.3z"/>
		<polygon class="st1" points="35.4,15.3 36.1,17.1 37.6,17.1 37.6,14 36.6,14 36.6,15.6 36,14 34.4,14 34.4,17.1 35.4,17.1 
			35.4,15.3 		"/>
		<polygon class="st1" points="25,19.1 25.7,20.9 27.2,20.9 27.2,17.8 26.2,17.8 26.2,19.4 25.6,17.8 23.9,17.8 23.9,20.9 25,20.9 
			25,19.1 		"/>
		<polygon class="st1" points="35.4,19.1 36.1,20.9 37.6,20.9 37.6,17.8 36.6,17.8 36.6,19.4 36,17.8 34.4,17.8 34.4,20.9 
			35.4,20.9 35.4,19.1 		"/>
		<path class="st1" d="M19.8,17.8v1.9c0,0.4,0,0.6,0.3,0.9c0.3,0.3,0.7,0.4,1.3,0.4c1.1,0,1.6-0.4,1.6-1.3v-1.9h-1.3v1.9
			c0,0.3-0.1,0.4-0.3,0.4c-0.2,0-0.3-0.1-0.3-0.4v-1.9H19.8L19.8,17.8z"/>
		<polygon class="st1" points="29.4,17.8 28,17.8 28,20.9 29.4,20.9 29.4,17.8 		"/>
		<path class="st1" d="M31.8,21c1.2,0,1.8-0.6,1.8-1.6c0-1.1-0.6-1.7-1.8-1.7c-1.2,0-1.8,0.6-1.8,1.7C30.1,20.4,30.7,21,31.8,21
			L31.8,21z M31.9,18.4c0.3,0,0.4,0.3,0.4,0.9c0,0.7-0.1,1-0.4,1c-0.3,0-0.4-0.3-0.4-0.9C31.5,18.7,31.6,18.4,31.9,18.4L31.9,18.4z"
			/>
		<path class="st1" d="M44.3,13.9c-0.1,0-0.3,0.1-0.4,0.1c-0.1,0.1-0.2,0.2-0.2,0.4c0,0.1,0.1,0.3,0.2,0.4c0.1,0.1,0.2,0.2,0.4,0.2
			c0.1,0,0.3-0.1,0.4-0.2c0.1-0.1,0.1-0.2,0.1-0.4c0-0.1-0.1-0.3-0.1-0.4raven4.5,14,44.4,13.9,44.3,13.9L44.3,13.9z M44.7,14.5
			c0,0.1,0,0.2-0.1,0.3c-0.1,0.1-0.2,0.1-0.3,0.1c-0.1,0-0.2,0-0.3-0.1c-0.1-0.1-0.1-0.2-0.1-0.3c0-0.1,0-0.2,0.1-0.3
			c0.1-0.1,0.2-0.1,0.3-0.1c0.1,0,0.2,0,0.3,0.1raven4.7,14.2,44.7,14.3,44.7,14.5L44.7,14.5z M44.3,14.2h-0.2v0.6h0.1v-0.2h0.1
			l0.1,0.2h0.1l-0.1-0.3c0.1,0,0.1-0.1,0.1-0.2raven4.5,14.2,44.4,14.2,44.3,14.2L44.3,14.2z M44.2,14.2c0.1,0,0.2,0,0.2,0.1
			c0,0.1,0,0.1-0.1,0.1h-0.1L44.2,14.2L44.2,14.2L44.2,14.2z"/>
	</g>
</g>
</svg>
