<?xml version="1.0" encoding="utf-8"?>
<!-- Generator: Adobe Illustrator 22.0.0, SVG Export Plug-In . SVG Version: 6.00 Build 0)  -->
<svg version="1.1" id="Layer_1" xmlns="http://www.w3.org/2000/svg" xmlns:xlink="http://www.w3.org/1999/xlink" x="0px" y="0px"
	 viewBox="0 0 56 35" style="enable-background:new 0 0 56 35;" xml:space="preserve">
<style type="text/css">
	.st0{fill:#213D72;}
	.st1{fill:#FFFFFF;}
</style>
<g>
	<path class="st0" d="M56,33.1c0,1-0.8,1.9-1.9,1.9H1.9c-1,0-1.9-0.8-1.9-1.9V1.9C0,0.8,0.8,0,1.9,0h52.3c1,0,1.9,0.8,1.9,1.9V33.1z
		"/>
	<g>
		<path class="st1" d="M17.7,20.1h-1.2l-1-3.8c-0.1-0.4-0.2-0.8-0.2-1.1h0c0,0.4-0.1,0.7-0.2,1.1l-1,3.8h-1.2l-1.6-6.1h1l0.9,3.7
			c0.1,0.4,0.2,0.8,0.2,1.2h0c0.1-0.4,0.1-0.8,0.2-1.2l1-3.7h1.1l1.1,3.7c0.1,0.3,0.2,0.7,0.2,1.1h0c0.1-0.4,0.1-0.7,0.2-1.1
			l0.9-3.8h1L17.7,20.1"/>
		<path class="st1" d="M21,20.2c-1.2,0-2.1-0.7-2.1-2.3c0-1.3,0.9-2.4,2.2-2.4c1.2,0,2,0.7,2,2.2C23.3,19.2,22.4,20.2,21,20.2
			 M21.1,16.4c-0.6,0-1.2,0.4-1.2,1.5c0,1,0.4,1.5,1.1,1.5c0.6,0,1.1-0.5,1.1-1.5C22.3,16.9,21.9,16.4,21.1,16.4z"/>
		<path class="st1" d="M26.1,16.5c-0.9-0.2-1.3,0.4-1.3,1.8v1.8h-1v-4.5h0.9c0,0.3,0,0.6-0.1,1h0c0.2-0.6,0.6-1.2,1.5-1.1L26.1,16.5
			"/>
		<rect x="26.6" y="14" class="st1" width="1" height="6.1"/>
		<path class="st1" d="M31.3,20.1c0-0.2,0-0.6,0.1-0.8h0c-0.2,0.5-0.8,0.9-1.5,0.9c-1.1,0-1.6-0.8-1.6-2.1c0-1.5,0.9-2.5,2.3-2.5
			c0.2,0,0.4,0,0.7,0V14h1v6.1H31.3 M31.2,16.5c-0.2-0.1-0.5-0.1-0.7-0.1c-0.8,0-1.3,0.5-1.3,1.7c0,0.9,0.3,1.4,0.9,1.4
			c0.7,0,1.1-0.8,1.1-1.6V16.5z"/>
		<path class="st1" d="M34.3,17.9c-0.1,0-0.3,0-0.5,0v2.2h-1v-6.1c0.5,0,1,0,1.6,0c1.4,0,2.2,0.7,2.2,1.8
			C36.7,17,35.7,17.9,34.3,17.9 M34.3,14.8c-0.2,0-0.3,0-0.5,0v2.2c0.1,0,0.3,0,0.4,0c0.8,0,1.4-0.5,1.4-1.2
			C35.6,15.3,35.2,14.8,34.3,14.8z"/>
		<path class="st1" d="M39.4,20.1c0-0.3,0-0.6,0-0.8l0,0c-0.2,0.5-0.8,0.9-1.5,0.9c-0.8,0-1.3-0.5-1.3-1.2c0-1,1-1.6,2.6-1.6v-0.3
			c0-0.5-0.2-0.8-0.9-0.8c-0.4,0-0.9,0.1-1.3,0.3L37,15.9c0.4-0.2,1.1-0.3,1.6-0.3c1.4,0,1.7,0.6,1.7,1.5v1.9c0,0.4,0,0.8,0,1.2
			H39.4 M39.4,18.1c-1.3,0-1.7,0.4-1.7,0.8c0,0.3,0.2,0.6,0.6,0.6c0.7,0,1.1-0.6,1.1-1.3V18.1z"/>
		<path class="st1" d="M42.9,20.5c-0.6,1.5-1.2,2-2.2,2c-0.2,0-0.4,0-0.6-0.1l0.1-0.8c0.2,0,0.4,0.1,0.5,0.1c0.4,0,0.8-0.2,1.1-1
			l0.2-0.4l-1.7-4.5h1.1l0.7,2c0.1,0.4,0.3,0.8,0.4,1.2h0c0.1-0.4,0.3-0.9,0.4-1.4l0.6-1.8h1L42.9,20.5"/>
		<polyline class="st1" points="43.3,14.1 42.9,14.1 42.9,14 43.7,14 43.7,14.1 43.4,14.1 43.4,15 43.3,15 43.3,14.1 		"/>
		<path class="st1" d="M43.8,14H44l0.2,0.7c0,0.1,0,0.1,0,0.1h0c0-0.1,0-0.1,0.1-0.2l0.2-0.7h0.2v1h-0.1v-0.8h0L44.4,15h-0.1
			L44,14.1h0V15h-0.1V14"/>
	</g>
</g>
</svg>
