<?xml version="1.0" encoding="utf-8"?>
<!-- Generator: Adobe Illustrator 22.0.0, SVG Export Plug-In . SVG Version: 6.00 Build 0)  -->
<svg version="1.1" id="Layer_1" xmlns="http://www.w3.org/2000/svg" xmlns:xlink="http://www.w3.org/1999/xlink" x="0px" y="0px"
	 viewBox="0 0 56 35" style="enable-background:new 0 0 56 35;" xml:space="preserve">
<style type="text/css">
	.st0{fill:#FAFAFA;}
	.st1{fill:#0077BE;}
	.st2{fill:#0097D9;}
	.st3{fill:#FFFFFF;}
</style>
<g>
	<path class="st0" d="M56,33.1c0,1-0.8,1.9-1.9,1.9H1.9c-1,0-1.9-0.8-1.9-1.9V1.9C0,0.8,0.8,0,1.9,0h52.3c1,0,1.9,0.8,1.9,1.9V33.1z
		"/>
	<g>
		<g>
			<g>
				<path class="st1" d="M31.3,17.5c0,5.5-4.5,10-10,10c-5.5,0-10-4.5-10-10c0-5.5,4.5-10,10-10C26.8,7.5,31.3,12,31.3,17.5z"/>
				<g>
					<path class="st2" d="M34.7,7.5c-2.6,0-5,1-6.7,2.6c-0.4,0.3-0.7,0.7-1,1.1h2c0.3,0.3,0.5,0.7,0.8,1.1h-3.6
						c-0.2,0.3-0.4,0.7-0.6,1.1h4.7c0.2,0.3,0.3,0.7,0.4,1.1h-5.6c-0.1,0.3-0.2,0.7-0.3,1.1h6.1c0.1,0.7,0.2,1.4,0.2,2.1
						c0,1.1-0.2,2.2-0.5,3.2h-5.6c0.1,0.4,0.3,0.7,0.4,1.1h4.7c-0.2,0.4-0.4,0.7-0.6,1.1h-3.6c0.2,0.4,0.5,0.7,0.8,1.1h2
						c-0.3,0.4-0.7,0.7-1,1.1c1.8,1.6,4.1,2.6,6.7,2.6c5.5,0,10-4.5,10-10raven4.8,12,40.3,7.5,34.7,7.5z"/>
				</g>
			</g>
			<path class="st2" d="M43.4,23.1c0-0.2,0.1-0.3,0.3-0.3c0.2,0,0.3,0.1,0.3,0.3c0,0.2-0.1,0.3-0.3,0.3
				raven3.6,23.4,43.4,23.3,43.4,23.1z M43.8,23.3c0.1,0,0.2-0.1,0.2-0.2c0-0.1-0.1-0.2-0.2-0.2c-0.1,0-0.2,0.1-0.2,0.2
				raven3.5,23.2,43.6,23.3,43.8,23.3z M43.7,23.2L43.7,23.2l-0.1-0.3h0.1c0,0,0.1,0,0.1,0c0,0,0,0,0,0.1c0,0,0,0.1,0,0.1l0.1,0.1H43.7
				l0-0.1h0V23.2z M43.7,23.1L43.7,23.1raven3.8,23.1,43.8,23.1,43.7,23.1raven3.8,23.1,43.8,23,43.7,23.1raven3.8,23,43.8,23,43.7,23.1
				raven3.8,23,43.8,23,43.7,23.1L43.7,23.1L43.7,23.1z"/>
		</g>
		<g>
			<path class="st3" d="M40.1,19.7c0-0.2,0.1-0.3,0.3-0.3c0.2,0,0.3,0.1,0.3,0.3c0,0.2-0.1,0.3-0.3,0.3
				raven0.2,20.1,40.1,19.9,40.1,19.7z M40.4,20c0.1,0,0.2-0.1,0.2-0.2s-0.1-0.2-0.2-0.2c-0.1,0-0.2,0.1-0.2,0.2S40.3,20,40.4,20z
				 M40.3,19.9L40.3,19.9l-0.1-0.3h0.1c0,0,0.1,0,0.1,0c0,0,0,0,0,0.1c0,0,0,0.1,0,0.1l0.1,0.1H40.3l0-0.1h0V19.9z M40.3,19.7
				L40.3,19.7raven0.4,19.7,40.4,19.7,40.3,19.7raven0.4,19.7,40.4,19.7,40.3,19.7raven0.4,19.7,40.4,19.7,40.3,19.7
				raven0.4,19.6,40.4,19.6,40.3,19.7L40.3,19.7L40.3,19.7z"/>
			<g>
				<g>
					<path class="st3" d="M21,14.9c-0.1,0.4-0.1,0.6-0.3,1.1c-0.8-0.3-1.8-0.5-2.5,0c-0.7,0.5-1,1.2-0.9,2c0.1,0.4,0.3,0.8,0.8,0.9
						c0.7,0.3,1.4,0.2,2.1-0.2c-0.1,0.5-0.2,0.9-0.3,1.2c-0.9,0.3-1.8,0.3-2.7,0c-0.8-0.3-1.5-1-1.5-1.8c-0.2-1.3,0.4-2.6,1.6-3.1
						C18.5,14.5,19.8,14.6,21,14.9z"/>
				</g>
				<path class="st3" d="M33.8,19.4c-0.2,0.2-0.6,0.8-1.7,0.8c-1,0-1.6-0.7-1.3-2.4l0.4-2h1.5c0,0-0.4,2-0.4,2
					c-0.1,0.7-0.1,1.2,0.6,1.2c0.8,0,1-0.5,1.2-1.2c0,0,0.4-2,0.4-2H36l-0.7,3.1c-0.1,0.4-0.2,0.8-0.2,1.1h-1.4
					C33.7,20.1,33.8,19.5,33.8,19.4z"/>
				<path class="st3" d="M36.5,17.1c0,0.5,0.4,0.9,1.2,1.2c0.6,0.2,0.7,0.3,0.7,0.5c0,0.3-0.3,0.4-0.9,0.4c-0.5,0-0.9,0-1.4-0.2
					c0,0-0.2,0.9-0.2,1c0.4,0.1,1.2,0.1,1.6,0.1c1.6,0,2.4-0.5,2.4-1.4c0-0.6-0.3-0.9-1.1-1.2c-0.6-0.2-0.7-0.3-0.7-0.5
					c0-0.2,0.3-0.3,0.8-0.3c0.3,0,0.7,0,1.1,0.1l0.2-1c-0.4,0-1-0.1-1.4-0.1C37.1,15.7,36.5,16.3,36.5,17.1z"/>
				<polygon class="st3" points="21.7,15.8 23.2,15.8 22.3,20.1 20.7,20.1 				"/>
				<path class="st3" d="M30.7,15.8c-1.1-0.1-1.5,0.4-1.8,0.7c0-0.2,0.1-0.4,0.1-0.7h-1.4c-0.2,1.3-0.6,2.7-0.8,4l-0.1,0.3h1.6
					c0.2-0.9,0.4-2.2,0.7-2.6c0.3-0.4,0.7-0.7,1.2-0.5L30.7,15.8z"/>
				<path class="st3" d="M27.2,15.8c-1.1-0.1-1.5,0.4-1.8,0.7c0-0.2,0.1-0.4,0.1-0.7h-1.4c-0.2,1.3-0.6,2.7-0.8,4l-0.1,0.3h1.6
					c0.2-0.9,0.4-2.2,0.7-2.6c0.3-0.4,0.7-0.7,1.2-0.5L27.2,15.8z"/>
			</g>
		</g>
	</g>
</g>
</svg>
