<?xml version="1.0" encoding="utf-8"?>
<!-- Generator: Adobe Illustrator 22.0.0, SVG Export Plug-In . SVG Version: 6.00 Build 0)  -->
<svg version="1.1" id="Layer_1" xmlns="http://www.w3.org/2000/svg" xmlns:xlink="http://www.w3.org/1999/xlink" x="0px" y="0px"
	 viewBox="0 0 56 35" style="enable-background:new 0 0 56 35;" xml:space="preserve">
<style type="text/css">
	.st0{fill:#FAFAFA;}
	.st1{fill:#0CA551;}
	.st2{fill:#0A72B9;}
	.st3{fill:#FFFFFF;}
	.st4{fill:#E52628;}
</style>
<g>
	<path class="st0" d="M56,33.1c0,1-0.8,1.9-1.9,1.9H1.9c-1,0-1.9-0.8-1.9-1.9V1.9C0,0.8,0.8,0,1.9,0h52.3c1,0,1.9,0.8,1.9,1.9V33.1z
		"/>
	<g>
		<path class="st1" d="M37.7,18.7c0.1,2,0.1,4.1,0,6.2c-0.1,0.8-0.6,1.6-1.3,2.1c-0.6,0.4-1.3,0.4-2,0.4l-2.7,0l0-17.3
			c0.1-1.2,1-2.1,2.1-2.4c1.3-0.2,2.5-0.1,3.9-0.1l0.1,0.9v9.8l0,0V18.7z"/>
		<path class="st2" d="M18.2,18V9.9C18.3,9,19.1,8.1,20,7.8c1.3-0.4,2.9-0.2,4.2-0.2c0.1,1.3,0,3,0,4.1l0.1,10.6
			c-0.2,1.6,0.4,3.8-1.6,4.8c-1.3,0.6-3,0.2-4.5,0.4l0-0.2v-8.9V18z"/>
		<path class="st3" d="M18.2,18.4c0.5,0.7,1.3,1.3,2.2,1.3c1.1,0.1,2.6,0.2,3.3-0.8c0.5-0.5,0.2-1.3,0.3-2l0-1.3c-0.6-0.1-1.2,0-2,0
			c-0.4,1.4,0.6,3-1,3.7c-0.4,0.1-0.9,0-1.3-0.2c-0.6-0.1-0.3-1.1-1.1-0.9L18.2,18V18.4z"/>
		<path class="st4" d="M31,8.7l0,16.6c-0.2,0.8-0.8,1.6-1.7,1.9c-1.3,0.4-2.9,0.2-4.3,0.2L24.9,10c0.1-0.8,0.6-1.5,1.3-2
			c0.5-0.3,1.1-0.4,1.8-0.5h2.9L31,8.7z"/>
		<path class="st3" d="M30.7,15.5c0.1,0.2,0,0.4,0,0.6c-1-0.3-2.3-0.6-3.2,0.2c-0.3,0.4-0.5,0.8-0.5,1.4c0.1,0.6,0.5,1.2,1.1,1.4
			c0.9,0.3,1.8,0,2.6-0.2c0,0.2,0.1,0.4,0,0.5h-3.9c-0.7-0.1-1.2-0.5-1.5-1.2c-0.3-0.6-0.1-1.5,0.3-2.1c0.4-0.5,1-0.7,1.6-0.7
			L30.7,15.5z"/>
		<path class="st3" d="M37.7,18.7c-0.1,0.4-0.4,0.8-0.8,0.8h-4.8L32,19.5c0-1.4,0-2.7,0-4h3c1,0.1,2-0.3,2.4,0.6
			c0.1,0.3,0.1,0.7-0.1,1c-0.1,0.2-0.4,0.3-0.5,0.4c0.4,0.1,0.8,0.4,0.9,0.8V18.7z M33.7,15.9c-0.1,0.4-0.1,0.9,0,1.3
			c0.7,0,1.6,0.2,2.1-0.3c0.2-0.2,0.1-0.5,0-0.7C35.2,15.7,34.3,16,33.7,15.9z M35.5,17.8c-0.6-0.1-1.3-0.1-1.9,0
			c0,0.5,0,0.9,0.1,1.4c0.7,0,1.4,0.1,2-0.2c0.2-0.2,0.3-0.4,0.2-0.7C35.9,18,35.7,17.9,35.5,17.8z"/>
	</g>
</g>
</svg>
