<?xml version="1.0" encoding="utf-8"?>
<!-- Generator: Adobe Illustrator 22.0.0, SVG Export Plug-In . SVG Version: 6.00 Build 0)  -->
<svg version="1.1" id="Layer_1" xmlns="http://www.w3.org/2000/svg" xmlns:xlink="http://www.w3.org/1999/xlink" x="0px" y="0px"
	 viewBox="0 0 56 35" style="enable-background:new 0 0 56 35;" xml:space="preserve">
<style type="text/css">
	.st0{fill:#FAFAFA;}
	.st1{fill-rule:evenodd;clip-rule:evenodd;fill:#018161;}
</style>
<g>
	<path class="st0" d="M56,33.1c0,1-0.8,1.9-1.9,1.9H1.9c-1,0-1.9-0.8-1.9-1.9V1.9C0,0.8,0.8,0,1.9,0h52.3c1,0,1.9,0.8,1.9,1.9V33.1z
		"/>
	<g>
		<path class="st1" d="M44.8,17.2c0-1.4-1.1-4.1-4.7-4.1c-1.6,0-2.7,0.7-3.3,1.1v-1l-2.4,0v1c-0.6-0.5-1.3-1-2-1.1
			c-0.8-0.1-1.5-0.1-2.5,0.2c-0.8,0.2-1.3,0.6-1.8,1.1c-1-1.1-2.6-1.3-3.8-1.4c-1.4-0.1-2.9,0.1-4,0.9c-1.1-0.6-2.5-1-4-1
			c-1.3,0-2.6,0.3-3.5,1.1c-0.3,0.3-0.5,0.5-0.6,0.9c-0.3,0.8-0.2,1.7,0.2,2.2c0.7,0.9,1.4,1.2,2.8,1.4c1.2,0.1,2,0.1,2.9,0.3
			c0.4,0.1,0.8,0.4,0.8,0.8c0,0.5-0.7,1.4-2.5,1.3c-1.5-0.1-2-0.3-3.4-1.2l-1.6,1.3c0,0,0.3,0.2,0.5,0.3c0.2,0.1,0.4,0.2,0.6,0.3h0
			c1.6,0.9,3.6,1.2,5.4,0.9c0.9-0.1,1.7-0.4,2.5-0.9c0.6,0.4,1.4,1.1,3.3,1c1.2-0.1,2.1,0,2.9-1v0.9h2.3l0-0.9c0,0,0.4,0.3,0.6,0.4
			c1.5,0.9,3.8,0.5,5.2-0.5l0,1.2c0,0.8-0.7,1.3-1.5,1.6c-1.3,0.5-2.4,0.1-3.4-0.7l-1.8,1.2c0.5,0.5,0.9,0.7,1.6,1.1
			c1.9,0.9,4.1,0.6,5.6-0.3c1-0.6,1.4-1.3,1.6-2.5c0.1-0.6,0.1-1,0.2-1.6l0,0c0,0,0,0,0,0c0,0,0,0,0.1,0c0.5,0.3,0.9,0.6,1.6,0.8
			c1.1,0.3,2.3,0.3,3.6,0c0.6-0.2,1.2-0.4,1.7-0.8h0c0.3-0.2,0.5-0.4,0.8-0.6L43,20c-0.5,0.4-1.3,0.8-2.1,0.9
			c-1,0.1-2.1-0.1-2.8-0.7c-0.3-0.4-0.4-0.5-0.4-1.4l7.1,0V17.2z M29.6,17.8c0-0.5,0.1-1.1,0.1-1.6c0-0.3,0.4-0.6,0.8-0.8
			C31,15.1,31.5,15,32,15c0.4,0,0.8,0.1,1.1,0.2c0.6,0.2,1.1,0.7,1.1,1.2c0,0.5,0.1,1,0.1,1.4c0,0.6,0,1.1-0.1,1.6
			c-0.1,0.3-0.2,0.6-0.6,0.9c-0.4,0.3-1,0.6-1.7,0.5c-1-0.1-1.9-0.4-2.1-1C29.6,19.4,29.6,18.7,29.6,17.8z M25.4,20.9
			c-0.5,0.2-1.3,0.2-2.1,0.1c-0.7-0.1-1.4-0.1-1.6-0.8c-0.1-0.3-0.1-0.7,0.1-0.9c0.4-0.5,1.2-0.5,1.7-0.6h2.8
			C26.3,19.5,26.5,20.5,25.4,20.9z M17.2,17c-1.1-0.1-2.1-0.1-2.7-0.5c-0.3-0.3-0.3-1,0.2-1.3c0.6-0.4,1.4-0.4,1.9-0.3
			c0.9,0,1.9,0.3,2.8,0.9l1-0.9c0,0,1,0.9,1,0.9c1.2-0.8,1.6-0.8,2.7-0.8c1.5,0,1.9,0.3,2.2,0.6c0.1,0.2,0,1.5,0,1.5s-1.3,0-2.3,0
			c-0.8,0-1.2,0-2,0.1c-0.7,0.1-1.2,0.3-1.6,0.7c0,0-0.4-0.3-0.9-0.5C18.7,17,18.1,17,17.2,17z M37.7,17.1c0-0.6,0.2-1,0.4-1.4
			c0.5-0.7,1.4-1,2.2-1c0.8,0,1.7,0.3,2.2,1c0.3,0.4,0.5,0.8,0.5,1.5H37.7z"/>
	</g>
</g>
</svg>
