<?xml version="1.0" encoding="utf-8"?>
<!-- Generator: Adobe Illustrator 22.0.0, SVG Export Plug-In . SVG Version: 6.00 Build 0)  -->
<svg version="1.1" id="Layer_1" xmlns="http://www.w3.org/2000/svg" xmlns:xlink="http://www.w3.org/1999/xlink" x="0px" y="0px"
	 viewBox="0 0 56 35" style="enable-background:new 0 0 56 35;" xml:space="preserve">
<style type="text/css">
	.st0{fill:#FAFAFA;}
	.st1{fill:#862165;}
</style>
<g>
	<path class="st0" d="M56,33.1c0,1-0.8,1.9-1.9,1.9H1.9c-1,0-1.9-0.8-1.9-1.9V1.9C0,0.8,0.8,0,1.9,0h52.3c1,0,1.9,0.8,1.9,1.9V33.1z
		"/>
	<g>
		<path class="st1" d="M37.9,12.9l2.8-0.5v10.7h-2.8V12.9z M42,12.9v10.2h2.8V12.4L42,12.9z M33.9,23.1h2.8v-7.8h-2.8V23.1z
			 M15.5,16.4c-0.4,0-1.2-0.1-1.2-0.8c0-0.9,1.2-0.9,1.6-0.9c0.8,0,1.8,0.2,2.5,0.4c0,0,0.4,0.1,0.7,0.3l0,0v0V13l0,0
			c-0.8-0.3-1.8-0.6-3.7-0.6c-3.1,0-4.3,1.8-4.3,3.4c0,0.9,0.4,3,4,3.3c0.3,0,1.1,0.1,1.1,0.8c0,0.6-0.7,1-1.8,1
			c-1.2,0-2.4-0.3-3.1-0.6v2.5c1.1,0.3,2.3,0.4,3.7,0.4c3.1,0,4.4-1.7,4.4-3.4C19.6,17.8,18.1,16.6,15.5,16.4z M32.3,15.2
			c-2.6,0.1-3.9,1.2-3.9,3.5v4.4h2.8v-3.6c0-1.4,0.2-2,1.8-2v-2.3C32.8,15.1,32.3,15.2,32.3,15.2z M24.8,15.3
			c-0.1,0.2-0.5,1.4-1.6,2.7v-5.6L20.3,13v10.1h2.9V20c0.8,1.3,1.2,3.1,1.2,3.1h3.4c-0.3-1.4-1.8-4-1.8-4c1.3-1.7,1.9-3.5,2-3.8
			H24.8z M35.3,14.5c0.8,0,1.4-0.6,1.4-1.4c0-0.8-0.6-1.4-1.4-1.4c-0.8,0-1.4,0.6-1.4,1.4C33.9,13.9,34.6,14.5,35.3,14.5z"/>
	</g>
</g>
</svg>
