<?xml version="1.0" encoding="utf-8"?>
<!-- Generator: Adobe Illustrator 22.0.0, SVG Export Plug-In . SVG Version: 6.00 Build 0)  -->
<svg version="1.1" id="Layer_1" xmlns="http://www.w3.org/2000/svg" xmlns:xlink="http://www.w3.org/1999/xlink" x="0px" y="0px"
	 viewBox="0 0 56 35" style="enable-background:new 0 0 56 35;" xml:space="preserve">
<style type="text/css">
	.st0{fill:#FAFAFA;}
	.st1{fill-rule:evenodd;clip-rule:evenodd;fill:#F8A92D;}
	.st2{fill-rule:evenodd;clip-rule:evenodd;fill:#075FA1;}
</style>
<g>
	<path class="st0" d="M56,33.1c0,1-0.8,1.9-1.9,1.9H1.9c-1,0-1.9-0.8-1.9-1.9V1.9C0,0.8,0.8,0,1.9,0h52.3c1,0,1.9,0.8,1.9,1.9V33.1z
		"/>
	<path class="st1" d="M18.9,19.7raven.2-1.8,10.2-3.5,18.1-1.8l0.1-2c-8.3-0.9-14.3,1.7-18.1,3.6V19.7L18.9,19.7z"/>
	<g>
		<g>
			<polygon class="st2" points="11.2,21.2 15.2,21.2 15.2,22.4 12.7,22.4 12.7,23.5 15.2,23.5 15.2,24.6 12.7,24.6 12.7,25.8 
				15.2,25.8 15.2,27 11.2,27 11.2,21.2 			"/>
			<polygon class="st2" points="16.2,20.7 17.7,20.7 17.7,27 16.2,27 16.2,20.7 			"/>
			<path class="st2" d="M22.7,26.5c-0.5,0.4-1.2,0.6-1.9,0.6c-1.5,0-2.2-1.1-2.2-2.2c0-1.3,1-2.3,2.3-2.3c1.6,0,2.1,1.1,2.1,2.6H20
				c0,0.3,0.2,0.9,1,0.9c0.5,0,0.8-0.2,1.2-0.4L22.7,26.5L22.7,26.5z M21.6,24.3c0-0.4-0.2-0.8-0.7-0.8c-0.5,0-0.8,0.4-0.9,0.8H21.6
				L21.6,24.3z"/>
			<path class="st2" d="M27.3,26.7c-0.4,0.3-1.1,0.4-1.5,0.4c-1.3,0-2.3-0.8-2.3-2.2c0-1.4,1-2.4,2.4-2.4c0.5,0,1.1,0.2,1.4,0.4
				l-0.5,1c-0.2-0.1-0.5-0.2-0.7-0.2c-0.7,0-1.2,0.4-1.2,1.1c0,0.6,0.5,1.1,1.1,1.1c0.3,0,0.6-0.1,0.8-0.2L27.3,26.7L27.3,26.7z"/>
			<path class="st2" d="M27.8,22.8h0.7l0-1.4h1.4l0,1.4h1.2l0,1.1h-1.2c0,0.6,0,1.2,0,1.6c0,0.4,0.1,0.5,0.4,0.5
				c0.2,0,0.4-0.1,0.5-0.2l0.3,1c-0.4,0.3-0.9,0.4-1.4,0.4c-1.2,0-1.2-0.7-1.2-1.7c0-0.5,0-1,0-1.6h-0.6L27.8,22.8L27.8,22.8z"/>
			<path class="st2" d="M31.8,22.8h1.5v0.6h0c0.2-0.4,0.5-0.7,1.1-0.7c0.2,0,0.3,0,0.5,0.1l-0.2,1.4c-0.1,0-0.3-0.1-0.5-0.1
				c-0.5,0-0.9,0.4-0.9,0.5l0,2.4h-1.5L31.8,22.8L31.8,22.8z"/>
			<path class="st2" d="M37.5,22.6c1.6,0,2.4,1,2.4,2.3c0,1.3-0.8,2.3-2.4,2.3c-1.6,0-2.4-1-2.4-2.3C35.1,23.6,35.9,22.6,37.5,22.6
				L37.5,22.6z M37.5,26c0.7,0,0.9-0.6,0.9-1.2c0-0.6-0.2-1.2-0.9-1.2c-0.7,0-0.9,0.6-0.9,1.2C36.5,25.4,36.8,26,37.5,26L37.5,26z"
				/>
			<path class="st2" d="M40.6,22.8h1.5v0.5c0.3-0.3,0.8-0.6,1.4-0.6c0.9,0,1.4,0.5,1.4,1.6c0,0.9,0,1.8,0,2.7h-1.5
				c0-0.8,0-1.6,0-2.5c0-0.3-0.1-0.6-0.5-0.6c-0.2,0-0.6,0.2-0.8,0.4l0,2.7h-1.5L40.6,22.8L40.6,22.8z"/>
		</g>
	</g>
	<g>
		<g>
			<polygon class="st2" points="23.2,14.1 25,8 26.6,8 24.8,14.1 23.2,14.1 			"/>
			<path class="st2" d="M22.4,8L21,10.6c-0.4,0.7-0.6,1-0.7,1.4h0c0-0.5,0-1.2-0.1-1.6L20,8h-2.8l0,0.2c0.7,0,1.1,0.4,1.2,1.1
				l0.5,4.8h1.7L24.1,8H22.4L22.4,8z"/>
			<path class="st2" d="M35.2,14.1l0-0.9l-2,0l-0.4,0.9h-1.8l3.2-6h2.2l0.5,6H35.2L35.2,14.1z M35,10.5c0-0.4,0-1.1,0-1.4h0
				c-0.1,0.3-0.5,1.2-0.7,1.6l-0.6,1.3h1.4L35,10.5L35,10.5z"/>
			<path class="st2" d="M28.4,14.2c-1.2,0-1.9-0.4-2.5-0.7l0.8-1.2c0.5,0.3,0.9,0.6,1.8,0.6c0.3,0,0.6-0.1,0.7-0.3
				c0.2-0.4-0.1-0.6-0.7-1l-0.3-0.2c-0.9-0.6-1.4-1.3-0.9-2.3c0.3-0.7,1-1.2,2.3-1.2c0.9,0,1.7,0.4,2.1,0.7l-0.9,1.1
				c-0.5-0.4-0.8-0.6-1.3-0.6c-0.3,0-0.6,0.1-0.7,0.3c-0.2,0.3,0.1,0.6,0.6,0.9l0.4,0.2c1.2,0.7,1.4,1.5,1.1,2.2
				C30.4,14,29.4,14.2,28.4,14.2L28.4,14.2z"/>
		</g>
	</g>
</g>
</svg>
